<svg width="130" height="40" viewBox="0 0 130 40" fill="none" xmlns="http://www.w3.org/2000/svg">
<path d="M16.0627 12.9834C13.4222 12.9834 10.0117 13.9779 8.14136 16.3536V0H0V39.337H8.14136V36.4641C10.0117 38.8398 13.4222 39.8343 16.0627 39.8343C22.4988 39.8343 28.5498 34.7514 28.5498 26.4088C28.5498 18.0663 22.4988 12.9834 16.0627 12.9834ZM14.3574 32.2099C11.2219 32.2099 8.4164 29.7238 8.4164 26.4088C8.4164 23.0939 11.2769 20.6077 14.3574 20.6077C17.5479 20.6077 20.2984 23.1492 20.2984 26.4088C20.2984 29.6685 17.5479 32.2099 14.3574 32.2099Z" fill="black"/>
<path d="M51.1151 13.5912V26.5193C51.1151 30.8287 48.3097 31.9889 46.1643 31.9889C44.074 31.9889 41.7086 30.442 41.7086 26.5193V13.5912H33.5672V27.4586C33.5672 35.3591 36.9228 40 43.7439 40C46.1093 40 50.235 38.5083 51.1151 34.9171V39.337H59.2565V13.5912H51.1151Z" fill="black"/>
<path d="M82.2482 13.5912H76.8573V4.30939H68.7159V13.5912H64.0401V19.7238H68.7159V39.337H76.8573V19.7238H82.2482V13.5912Z" fill="black"/>
<path d="M86.7039 39.337H94.8453V0H86.7039V39.337Z" fill="black"/>
<path d="M117.424 12.9282C114.289 12.9282 111.208 14.7514 109.723 19.0055V13.5912H101.692V39.337H109.833V30.7735C109.833 23.1492 112.474 20.4972 115.664 20.4972C116.489 20.4972 117.754 20.6077 119.35 21.4917L121.275 13.7017C119.955 13.0387 118.635 12.9282 117.424 12.9282Z" fill="black"/>
<path d="M124.939 39.8343C127.69 39.8343 130 37.7901 130 34.9171C130 32.1547 127.69 30.1105 124.939 30.1105C122.244 30.1105 119.988 32.1547 119.988 34.9171C119.988 37.7901 122.244 39.8343 124.939 39.8343Z" fill="black"/>
</svg>
