<svg width="331" height="299" viewBox="0 0 331 299" fill="none" xmlns="http://www.w3.org/2000/svg">
<mask id="mask0" mask-type="alpha" maskUnits="userSpaceOnUse" x="0" y="0" width="331" height="182">
<rect width="331" height="182" fill="#C4C4C4"/>
</mask>
<g mask="url(#mask0)">
<circle cx="163.5" cy="181.5" r="117.5" fill="#E8E8EE"/>
<circle cx="163.5" cy="181.5" r="85.5" fill="white"/>
</g>
<mask id="mask1" mask-type="alpha" maskUnits="userSpaceOnUse" x="46" y="64" width="235" height="235">
<circle cx="163.5" cy="181.5" r="117.5" fill="#E8E8EE"/>
</mask>
<g mask="url(#mask1)">
<path d="M39 182H182L210 141L261 103V39H39V182Z" fill="#644DFF"/>
<circle cx="163.5" cy="181.5" r="85.5" fill="white"/>
</g>
<path d="M141.691 181H136.047V159.242L129.309 161.332V156.742L141.086 152.523H141.691V181ZM167.648 170.297H170.871V174.848H167.648V181H162.004V174.848H150.344L150.09 171.293L161.945 152.562H167.648V170.297ZM155.715 170.297H162.004V160.258L161.633 160.902L155.715 170.297ZM193.41 181H173.918V177.133L183.117 167.328C184.38 165.948 185.311 164.743 185.91 163.715C186.522 162.686 186.828 161.71 186.828 160.785C186.828 159.522 186.509 158.533 185.871 157.816C185.233 157.087 184.322 156.723 183.137 156.723C181.861 156.723 180.852 157.165 180.109 158.051C179.38 158.923 179.016 160.076 179.016 161.508H173.352C173.352 159.776 173.762 158.194 174.582 156.762C175.415 155.329 176.587 154.21 178.098 153.402C179.608 152.582 181.32 152.172 183.234 152.172C186.164 152.172 188.436 152.875 190.051 154.281C191.678 155.688 192.492 157.673 192.492 160.238C192.492 161.645 192.128 163.077 191.398 164.535C190.669 165.993 189.419 167.693 187.648 169.633L181.184 176.449H193.41V181Z" fill="#644DFF"/>
<path d="M102.071 203.182C103.793 203.182 104.871 202.146 105.039 200.508H104.213C104.073 201.67 103.303 202.44 102.071 202.44C100.433 202.44 99.6767 201.068 99.6767 199.388C99.6767 197.708 100.419 196.322 102.085 196.322C103.205 196.322 103.919 196.868 104.129 197.946H104.997C104.759 196.462 103.681 195.594 102.085 195.594C99.9847 195.594 98.7807 197.232 98.7807 199.388C98.7807 201.544 99.9567 203.182 102.071 203.182ZM108.36 203.168C109.508 203.168 110.124 202.636 110.628 201.936H110.656V203H111.51V195.762H110.656V200.284C110.656 201.516 109.788 202.44 108.556 202.44C107.506 202.44 106.848 201.908 106.848 200.816V195.762H105.98V200.872C105.98 202.328 106.96 203.168 108.36 203.168ZM112.967 203H113.835V198.884C113.835 198.03 114.213 197.358 114.773 196.938C115.221 196.616 115.795 196.504 116.313 196.588V195.734C116.257 195.72 116.187 195.706 116.075 195.706C115.067 195.706 114.311 196.266 113.863 197.106H113.835V195.762H112.967V203ZM117.274 203H118.142V198.884C118.142 198.03 118.52 197.358 119.08 196.938C119.528 196.616 120.102 196.504 120.62 196.588V195.734C120.564 195.72 120.494 195.706 120.382 195.706C119.374 195.706 118.618 196.266 118.17 197.106H118.142V195.762H117.274V203ZM124.221 203.182C125.845 203.182 126.867 202.244 127.175 200.816H126.335C126.055 201.796 125.425 202.44 124.221 202.44C122.569 202.44 121.785 201.166 121.743 199.542H127.259C127.273 197.512 126.475 195.594 124.151 195.594C122.149 195.594 120.847 197.218 120.847 199.388C120.847 201.558 122.051 203.182 124.221 203.182ZM121.757 198.856C121.911 197.414 122.681 196.308 124.151 196.308C125.635 196.308 126.307 197.428 126.349 198.856H121.757ZM128.334 203H129.202V198.408C129.202 197.218 130.21 196.35 131.442 196.35C132.464 196.35 133.094 196.854 133.094 197.946V203H133.962V197.862C133.962 196.406 132.996 195.608 131.652 195.608C130.504 195.608 129.72 196.14 129.23 196.868H129.202V195.762H128.334V203ZM137.213 203.056C137.521 203.056 137.773 203.014 138.011 202.93V202.188H137.969C137.843 202.244 137.591 202.3 137.395 202.3C136.933 202.3 136.695 202.132 136.695 201.614V196.476H138.039V195.762H136.695V193.536H135.827V195.762H134.735V196.476H135.827V201.754C135.827 202.678 136.387 203.056 137.213 203.056ZM144.264 202.454C142.64 202.454 141.8 201.082 141.8 199.388C141.8 197.694 142.64 196.322 144.264 196.322C145.874 196.322 146.714 197.694 146.714 199.388C146.714 201.082 145.874 202.454 144.264 202.454ZM144.264 203.182C146.35 203.182 147.596 201.544 147.596 199.388C147.596 197.232 146.35 195.594 144.264 195.594C142.178 195.594 140.904 197.232 140.904 199.388C140.904 201.544 142.178 203.182 144.264 203.182ZM151.604 203.182C153.326 203.182 154.404 202.146 154.572 200.508H153.746C153.606 201.67 152.836 202.44 151.604 202.44C149.966 202.44 149.21 201.068 149.21 199.388C149.21 197.708 149.952 196.322 151.618 196.322C152.738 196.322 153.452 196.868 153.662 197.946H154.53C154.292 196.462 153.214 195.594 151.618 195.594C149.518 195.594 148.314 197.232 148.314 199.388C148.314 201.544 149.49 203.182 151.604 203.182ZM158.481 203.182C160.203 203.182 161.281 202.146 161.449 200.508H160.623C160.483 201.67 159.713 202.44 158.481 202.44C156.843 202.44 156.087 201.068 156.087 199.388C156.087 197.708 156.829 196.322 158.495 196.322C159.615 196.322 160.329 196.868 160.539 197.946H161.407C161.169 196.462 160.091 195.594 158.495 195.594C156.395 195.594 155.191 197.232 155.191 199.388C155.191 201.544 156.367 203.182 158.481 203.182ZM164.77 203.168C165.918 203.168 166.534 202.636 167.038 201.936H167.066V203H167.92V195.762H167.066V200.284C167.066 201.516 166.198 202.44 164.966 202.44C163.916 202.44 163.258 201.908 163.258 200.816V195.762H162.39V200.872C162.39 202.328 163.37 203.168 164.77 203.168ZM169.377 205.324H170.245V201.95H170.273C170.819 202.748 171.561 203.182 172.667 203.182C174.571 203.182 175.719 201.614 175.719 199.388C175.719 196.98 174.459 195.608 172.723 195.608C171.575 195.608 170.777 196.154 170.273 197.008H170.245V195.762H169.377V205.324ZM172.625 202.454C170.973 202.454 170.175 201.194 170.175 199.416C170.175 197.694 171.015 196.336 172.611 196.336C174.053 196.336 174.837 197.596 174.837 199.402C174.837 201.082 174.109 202.454 172.625 202.454ZM178.693 203.168C180.079 203.168 180.821 202.496 181.227 201.922H181.269V202.076C181.311 202.776 181.703 203.098 182.333 203.098C182.613 203.098 182.795 203.042 182.921 202.986V202.356H182.879C182.753 202.384 182.655 202.412 182.557 202.412C182.249 202.398 182.081 202.216 182.081 201.782V197.848C182.081 196.266 181.101 195.608 179.519 195.608C177.657 195.608 176.733 196.518 176.635 197.918H177.489C177.559 196.84 178.231 196.308 179.519 196.308C180.639 196.308 181.255 196.784 181.255 197.764V197.904C181.255 198.632 180.737 198.716 179.309 198.884C177.671 199.08 176.327 199.43 176.327 201.152C176.327 202.496 177.349 203.168 178.693 203.168ZM178.847 202.468C177.993 202.468 177.237 202.16 177.237 201.152C177.237 199.906 178.175 199.724 179.393 199.556C180.093 199.458 180.807 199.332 181.269 199.08V200.382C181.269 201.376 180.429 202.468 178.847 202.468ZM183.719 203H184.587V198.408C184.587 197.218 185.595 196.35 186.827 196.35C187.849 196.35 188.479 196.854 188.479 197.946V203H189.347V197.862C189.347 196.406 188.381 195.608 187.037 195.608C185.889 195.608 185.105 196.14 184.615 196.868H184.587V195.762H183.719V203ZM193.659 203.182C195.381 203.182 196.459 202.146 196.627 200.508H195.801C195.661 201.67 194.891 202.44 193.659 202.44C192.021 202.44 191.265 201.068 191.265 199.388C191.265 197.708 192.007 196.322 193.673 196.322C194.793 196.322 195.507 196.868 195.717 197.946H196.585C196.347 196.462 195.269 195.594 193.673 195.594C191.573 195.594 190.369 197.232 190.369 199.388C190.369 201.544 191.545 203.182 193.659 203.182ZM198.38 205.394C199.318 205.394 199.892 205.058 200.382 203.756L203.364 195.762H202.468L200.802 200.438C200.564 201.11 200.256 202.09 200.256 202.09H200.228C200.228 202.09 199.906 201.11 199.654 200.438L197.918 195.762H196.994L199.78 202.986L199.542 203.63C199.276 204.372 198.884 204.61 198.338 204.61C198.002 204.61 197.806 204.554 197.68 204.512H197.638V205.282C197.862 205.352 198.058 205.394 198.38 205.394ZM206.333 203H207.201V192.99H206.333V203ZM211.694 203.182C213.318 203.182 214.34 202.244 214.648 200.816H213.808C213.528 201.796 212.898 202.44 211.694 202.44C210.042 202.44 209.258 201.166 209.216 199.542H214.732C214.746 197.512 213.948 195.594 211.624 195.594C209.622 195.594 208.32 197.218 208.32 199.388C208.32 201.558 209.524 203.182 211.694 203.182ZM209.23 198.856C209.384 197.414 210.154 196.308 211.624 196.308C213.108 196.308 213.78 197.428 213.822 198.856H209.23ZM217.52 203H218.542L221.16 195.762H220.278L218.654 200.354C218.416 201.054 218.052 202.188 218.052 202.188H218.024C218.024 202.188 217.674 201.054 217.436 200.354L215.882 195.762H214.958L217.52 203ZM224.778 203.182C226.402 203.182 227.424 202.244 227.732 200.816H226.892C226.612 201.796 225.982 202.44 224.778 202.44C223.126 202.44 222.342 201.166 222.3 199.542H227.816C227.83 197.512 227.032 195.594 224.708 195.594C222.706 195.594 221.404 197.218 221.404 199.388C221.404 201.558 222.608 203.182 224.778 203.182ZM222.314 198.856C222.468 197.414 223.238 196.308 224.708 196.308C226.192 196.308 226.864 197.428 226.906 198.856H222.314ZM228.933 203H229.801V192.99H228.933V203Z" fill="#AFAFBB"/>
<path d="M37.5069 181.412C35.7989 181.412 34.8889 179.774 34.8889 177.198C34.8889 174.566 35.7989 172.97 37.5069 172.97C39.2009 172.97 40.1109 174.622 40.1109 177.198C40.1109 179.83 39.2429 181.412 37.5069 181.412ZM37.4929 182.196C39.7889 182.196 41.0489 180.25 41.0489 177.198C41.0489 174.062 39.6769 172.2 37.5069 172.2C35.3369 172.2 33.9509 174.09 33.9509 177.198C33.9509 180.25 35.2249 182.196 37.4929 182.196Z" fill="#AFAFBB"/>
<path d="M283.649 182H289.865V181.16H284.685C284.881 179.83 286.099 179.088 287.205 178.43C288.619 177.59 289.991 176.918 289.991 175C289.991 173.418 288.857 172.214 287.051 172.214C286.141 172.214 285.301 172.508 284.727 173.082C284.181 173.628 283.873 174.412 283.873 175.49H284.797C284.811 174.608 285.021 174.02 285.399 173.6C285.777 173.194 286.323 172.984 286.995 172.984C288.255 172.984 289.067 173.74 289.067 175.028C289.067 176.428 288.171 176.904 286.869 177.688C285.357 178.598 283.691 179.536 283.649 182ZM294.563 181.412C292.855 181.412 291.945 179.774 291.945 177.198C291.945 174.566 292.855 172.97 294.563 172.97C296.257 172.97 297.167 174.622 297.167 177.198C297.167 179.83 296.299 181.412 294.563 181.412ZM294.549 182.196C296.845 182.196 298.105 180.25 298.105 177.198C298.105 174.062 296.733 172.2 294.563 172.2C292.393 172.2 291.007 174.09 291.007 177.198C291.007 180.25 292.281 182.196 294.549 182.196ZM302.725 181.412C301.017 181.412 300.107 179.774 300.107 177.198C300.107 174.566 301.017 172.97 302.725 172.97C304.419 172.97 305.329 174.622 305.329 177.198C305.329 179.83 304.461 181.412 302.725 181.412ZM302.711 182.196C305.007 182.196 306.267 180.25 306.267 177.198C306.267 174.062 304.895 172.2 302.725 172.2C300.555 172.2 299.169 174.09 299.169 177.198C299.169 180.25 300.443 182.196 302.711 182.196Z" fill="#AFAFBB"/>
<g filter="url(#filter0_d)">
<rect x="65" y="231" width="200" height="40" rx="20" fill="#644DFF"/>
</g>
<path d="M102.699 258H105.379L107.139 250.34C107.379 249.3 107.599 247.8 107.599 247.8H107.639C107.639 247.8 107.899 249.3 108.139 250.34L109.879 258H112.579L116.659 243.7H113.799L111.999 250.78C111.719 252.02 111.299 253.92 111.299 253.92H111.259C111.259 253.92 110.899 252.12 110.599 250.86L109.039 243.7H106.239L104.679 250.88C104.379 252.14 104.019 253.92 104.019 253.92H103.979C103.979 253.92 103.639 252.02 103.359 250.8L101.499 243.7H98.5395L102.699 258ZM117.64 258H120.36V247.74H117.64V258ZM117.64 246.14H120.36V243.7H117.64V246.14ZM121.512 249.54H122.932V255.56C122.932 257.5 124.392 258.02 125.712 258.02C126.792 258.02 127.412 257.98 127.412 257.98V255.98C127.412 255.98 126.952 256 126.612 256C126.012 256 125.592 255.74 125.592 254.98V249.54H127.352V247.74H125.592V244.54H122.932V247.74H121.512V249.54ZM131.473 243.7H128.753V258H131.473V252.18C131.473 250.78 132.353 249.82 133.553 249.82C134.693 249.82 135.333 250.6 135.333 251.7V258H138.053V251.3C138.053 249.06 136.633 247.46 134.513 247.46C133.113 247.46 132.273 248 131.533 249.08H131.473V243.7ZM139.73 258H142.45V247.74H139.73V258ZM139.73 246.14H142.45V243.7H139.73V246.14ZM146.862 247.74H144.202V258H146.922V252.18C146.922 250.78 147.802 249.82 149.002 249.82C150.142 249.82 150.782 250.6 150.782 251.7V258H153.502V251.3C153.502 249.06 152.082 247.46 149.962 247.46C148.562 247.46 147.622 248.04 146.922 249.14H146.862V247.74ZM163.298 258.3C166.038 258.3 167.738 256.56 167.918 254.38H165.298C165.118 255.54 164.338 256.12 163.238 256.12C161.578 256.12 160.798 254.82 160.798 252.88C160.798 250.9 161.638 249.64 163.278 249.64C164.278 249.64 164.978 250.32 165.158 251.22H167.818C167.458 249 165.818 247.46 163.158 247.46C160.038 247.46 158.038 249.82 158.038 252.88C158.038 255.94 160.058 258.3 163.298 258.3ZM175.76 258H178.38V257.9C178.14 257.72 178.02 257.26 178.02 256.48V251.26C178.02 248.86 176.78 247.48 173.7 247.48C170.7 247.48 169.36 249.06 169.28 250.86H171.7C171.78 249.88 172.4 249.42 173.68 249.42C174.82 249.42 175.4 249.9 175.4 250.64C175.4 251.42 174.62 251.56 172.92 251.8C170.64 252.12 168.8 252.84 168.8 255.1C168.8 257.14 170.28 258.24 172.38 258.24C174.14 258.24 174.88 257.64 175.4 256.86H175.44C175.5 257.32 175.6 257.8 175.76 258ZM173.04 256.34C172.08 256.34 171.44 256 171.44 255.04C171.44 254.08 172.14 253.76 173.56 253.44C174.24 253.28 174.98 253.12 175.46 252.84V254.38C175.46 255.38 174.6 256.34 173.04 256.34ZM179.749 261.36H182.469V256.84H182.509C183.089 257.72 184.029 258.3 185.469 258.3C188.109 258.3 189.909 256.2 189.909 252.88C189.909 249.68 188.169 247.46 185.449 247.46C184.049 247.46 183.089 248.12 182.429 249.02H182.369V247.74H179.749V261.36ZM184.889 256.04C183.269 256.04 182.409 254.82 182.409 252.96C182.409 251.12 183.089 249.66 184.789 249.66C186.469 249.66 187.149 251.02 187.149 252.96C187.149 254.9 186.269 256.04 184.889 256.04ZM197.635 258H200.255V257.9C200.015 257.72 199.895 257.26 199.895 256.48V251.26C199.895 248.86 198.655 247.48 195.575 247.48C192.575 247.48 191.235 249.06 191.155 250.86H193.575C193.655 249.88 194.275 249.42 195.555 249.42C196.695 249.42 197.275 249.9 197.275 250.64C197.275 251.42 196.495 251.56 194.795 251.8C192.515 252.12 190.675 252.84 190.675 255.1C190.675 257.14 192.155 258.24 194.255 258.24C196.015 258.24 196.755 257.64 197.275 256.86H197.315C197.375 257.32 197.475 257.8 197.635 258ZM194.915 256.34C193.955 256.34 193.315 256 193.315 255.04C193.315 254.08 194.015 253.76 195.435 253.44C196.115 253.28 196.855 253.12 197.335 252.84V254.38C197.335 255.38 196.475 256.34 194.915 256.34ZM206.384 258.3C209.124 258.3 210.824 256.56 211.004 254.38H208.384C208.204 255.54 207.424 256.12 206.324 256.12C204.664 256.12 203.884 254.82 203.884 252.88C203.884 250.9 204.724 249.64 206.364 249.64C207.364 249.64 208.064 250.32 208.244 251.22H210.904C210.544 249 208.904 247.46 206.244 247.46C203.124 247.46 201.124 249.82 201.124 252.88C201.124 255.94 203.144 258.3 206.384 258.3ZM212.191 258H214.911V247.74H212.191V258ZM212.191 246.14H214.911V243.7H212.191V246.14ZM216.063 249.54H217.483V255.56C217.483 257.5 218.943 258.02 220.263 258.02C221.343 258.02 221.963 257.98 221.963 257.98V255.98C221.963 255.98 221.503 256 221.163 256C220.563 256 220.143 255.74 220.143 254.98V249.54H221.903V247.74H220.143V244.54H217.483V247.74H216.063V249.54ZM223.719 261.36H225.319C227.399 261.36 228.159 260.54 228.939 258.26L232.519 247.74H229.779L228.339 252.36C228.019 253.3 227.739 254.6 227.739 254.6H227.699C227.699 254.6 227.359 253.3 227.039 252.36L225.519 247.74H222.659L225.419 255.04C225.999 256.6 226.199 257.26 226.199 257.82C226.199 258.66 225.759 259.22 224.679 259.22H223.719V261.36Z" fill="white"/>
<defs>
<filter id="filter0_d" x="51" y="225" width="220" height="60" filterUnits="userSpaceOnUse" color-interpolation-filters="sRGB">
<feFlood flood-opacity="0" result="BackgroundImageFix"/>
<feColorMatrix in="SourceAlpha" type="matrix" values="0 0 0 0 0 0 0 0 0 0 0 0 0 0 0 0 0 0 127 0"/>
<feOffset dx="-4" dy="4"/>
<feGaussianBlur stdDeviation="5"/>
<feColorMatrix type="matrix" values="0 0 0 0 0 0 0 0 0 0 0 0 0 0 0 0 0 0 0.05 0"/>
<feBlend mode="normal" in2="BackgroundImageFix" result="effect1_dropShadow"/>
<feBlend mode="normal" in="SourceGraphic" in2="effect1_dropShadow" result="shape"/>
</filter>
</defs>
</svg>
