<svg width="366" height="377" viewBox="0 0 366 377" fill="none" xmlns="http://www.w3.org/2000/svg">
<line x1="24.2019" y1="177.423" x2="365.202" y2="177.423" stroke="#E1E1E6" stroke-opacity="0.5" stroke-dasharray="3 3"/>
<line x1="24.2019" y1="118.192" x2="365.202" y2="118.192" stroke="#E1E1E6" stroke-opacity="0.5" stroke-dasharray="3 3"/>
<line x1="24.2019" y1="64.6026" x2="365.202" y2="64.6026" stroke="#E1E1E6" stroke-opacity="0.5" stroke-dasharray="3 3"/>
<line x1="24.2019" y1="9.60257" x2="365.202" y2="9.60257" stroke="#F73F64"/>
<path d="M335.202 209.308C335.202 205.994 337.888 203.308 341.202 203.308H342.202C345.516 203.308 348.202 205.994 348.202 209.308V238.564H335.202V209.308Z" fill="#644DFF"/>
<path d="M35.2019 209.308C35.2019 205.994 37.8882 203.308 41.2019 203.308H42.2019C45.5156 203.308 48.2019 205.994 48.2019 209.308V238.564H35.2019V209.308Z" fill="#644DFF"/>
<path d="M65.2019 71.1026C65.2019 67.7889 67.8882 65.1026 71.2019 65.1026H72.2019C75.5156 65.1026 78.2019 67.7889 78.2019 71.1026V238.564H65.2019V71.1026Z" fill="#644DFF"/>
<path d="M95.2019 124.692C95.2019 121.379 97.8882 118.692 101.202 118.692H102.202C105.516 118.692 108.202 121.379 108.202 124.692V238.564H95.2019V124.692Z" fill="#644DFF"/>
<path d="M125.202 209.308C125.202 205.994 127.888 203.308 131.202 203.308H132.202C135.516 203.308 138.202 205.994 138.202 209.308V238.564H125.202V209.308Z" fill="#644DFF"/>
<path d="M155.202 183.923C155.202 180.609 157.888 177.923 161.202 177.923H162.202C165.516 177.923 168.202 180.609 168.202 183.923V238.564H155.202V183.923Z" fill="#644DFF"/>
<path d="M185.202 224.82C185.202 221.507 187.888 218.82 191.202 218.82H192.202C195.516 218.82 198.202 221.507 198.202 224.82V238.564H185.202V224.82Z" fill="#644DFF"/>
<path d="M215.202 202.256C215.202 198.943 217.888 196.256 221.202 196.256H222.202C225.516 196.256 228.202 198.943 228.202 202.256V238.564H215.202V202.256Z" fill="#644DFF"/>
<path d="M245 11C245 7.68629 247.686 5 251 5H252C255.314 5 258 7.68629 258 11V239H245V11Z" fill="#F73F64"/>
<path d="M275.202 35.8462C275.202 32.5325 277.888 29.8462 281.202 29.8462H282.202C285.516 29.8462 288.202 32.5325 288.202 35.8462V238.564H275.202V35.8462Z" fill="#644DFF"/>
<path d="M305.202 183.923C305.202 180.609 307.888 177.923 311.202 177.923H312.202C315.516 177.923 318.202 180.609 318.202 183.923V238.564H305.202V183.923Z" fill="#644DFF"/>
<path d="M98.7059 261.752C97.2419 261.752 96.4619 260.348 96.4619 258.14C96.4619 255.884 97.2419 254.516 98.7059 254.516C100.158 254.516 100.938 255.932 100.938 258.14C100.938 260.396 100.194 261.752 98.7059 261.752ZM98.6939 262.424C100.662 262.424 101.742 260.756 101.742 258.14C101.742 255.452 100.566 253.856 98.7059 253.856C96.8459 253.856 95.6579 255.476 95.6579 258.14C95.6579 260.756 96.7499 262.424 98.6939 262.424ZM105.381 262.424C106.893 262.424 108.249 261.62 108.249 259.952C108.249 258.872 107.529 258.068 106.617 257.78V257.744C107.373 257.444 107.853 256.82 107.853 255.968C107.853 254.756 106.845 253.856 105.357 253.856C103.941 253.856 102.861 254.72 102.861 255.968C102.861 256.82 103.329 257.456 104.085 257.756V257.792C103.161 258.116 102.465 258.8 102.465 259.952C102.465 261.596 103.869 262.424 105.381 262.424ZM105.381 261.764C104.037 261.764 103.269 261.02 103.269 259.952C103.269 258.872 104.025 258.116 105.345 258.116C106.677 258.116 107.469 258.872 107.469 259.952C107.469 261.008 106.677 261.764 105.381 261.764ZM105.345 257.48C104.241 257.48 103.629 256.832 103.629 256.004C103.629 255.152 104.265 254.504 105.357 254.504C106.449 254.504 107.085 255.152 107.085 256.004C107.085 256.832 106.425 257.48 105.345 257.48Z" fill="#AFAFBB"/>
<path d="M68.7059 261.752C67.2419 261.752 66.4619 260.348 66.4619 258.14C66.4619 255.884 67.2419 254.516 68.7059 254.516C70.1579 254.516 70.9379 255.932 70.9379 258.14C70.9379 260.396 70.1939 261.752 68.7059 261.752ZM68.6939 262.424C70.6619 262.424 71.7419 260.756 71.7419 258.14C71.7419 255.452 70.5659 253.856 68.7059 253.856C66.8459 253.856 65.6579 255.476 65.6579 258.14C65.6579 260.756 66.7499 262.424 68.6939 262.424ZM75.666 262.424C77.214 262.424 78.306 261.2 78.294 259.64C78.294 258.104 77.202 256.964 75.69 256.964C74.706 256.964 73.938 257.444 73.446 258.296H73.422C73.41 256.028 74.118 254.528 75.726 254.528C76.65 254.528 77.226 255.152 77.298 255.992H78.078C77.946 254.804 77.154 253.856 75.714 253.856C73.698 253.856 72.654 255.644 72.654 258.092C72.654 259.796 72.942 260.996 73.758 261.728C74.238 262.16 74.826 262.424 75.666 262.424ZM75.642 261.776C74.454 261.776 73.626 260.936 73.626 259.688C73.626 258.464 74.478 257.612 75.642 257.612C76.758 257.612 77.538 258.44 77.538 259.664C77.538 260.888 76.77 261.776 75.642 261.776Z" fill="#AFAFBB"/>
<path d="M38.7059 261.752C37.2419 261.752 36.4619 260.348 36.4619 258.14C36.4619 255.884 37.2419 254.516 38.7059 254.516C40.1579 254.516 40.9379 255.932 40.9379 258.14C40.9379 260.396 40.1939 261.752 38.7059 261.752ZM38.6939 262.424C40.6619 262.424 41.7419 260.756 41.7419 258.14C41.7419 255.452 40.5659 253.856 38.7059 253.856C36.8459 253.856 35.6579 255.476 35.6579 258.14C35.6579 260.756 36.7499 262.424 38.6939 262.424ZM46.326 262.256H47.082V260.156H48.354V259.508H47.082V253.952H46.434L42.486 259.436V260.156H46.326V262.256ZM43.266 259.508V259.472L46.302 255.26H46.326V259.508H43.266Z" fill="#AFAFBB"/>
<path d="M0.384 11H5.712V10.28H1.272C1.44 9.14 2.484 8.504 3.432 7.94C4.644 7.22 5.82 6.644 5.82 5C5.82 3.644 4.848 2.612 3.3 2.612C2.52 2.612 1.8 2.864 1.308 3.356C0.84 3.824 0.576 4.496 0.576 5.42H1.368C1.38 4.664 1.56 4.16 1.884 3.8C2.208 3.452 2.676 3.272 3.252 3.272C4.332 3.272 5.028 3.92 5.028 5.024C5.028 6.224 4.26 6.632 3.144 7.304C1.848 8.084 0.42 8.888 0.384 11ZM9.73838 10.496C8.27438 10.496 7.49438 9.092 7.49438 6.884C7.49438 4.628 8.27438 3.26 9.73838 3.26C11.1904 3.26 11.9704 4.676 11.9704 6.884C11.9704 9.14 11.2264 10.496 9.73838 10.496ZM9.72638 11.168C11.6944 11.168 12.7744 9.5 12.7744 6.884C12.7744 4.196 11.5984 2.6 9.73838 2.6C7.87838 2.6 6.69038 4.22 6.69038 6.884C6.69038 9.5 7.78238 11.168 9.72638 11.168ZM16.7345 10.496C15.2705 10.496 14.4905 9.092 14.4905 6.884C14.4905 4.628 15.2705 3.26 16.7345 3.26C18.1865 3.26 18.9665 4.676 18.9665 6.884C18.9665 9.14 18.2225 10.496 16.7345 10.496ZM16.7225 11.168C18.6905 11.168 19.7705 9.5 19.7705 6.884C19.7705 4.196 18.5945 2.6 16.7345 2.6C14.8745 2.6 13.6865 4.22 13.6865 6.884C13.6865 9.5 14.7785 11.168 16.7225 11.168Z" fill="#AFAFBB"/>
<path d="M8.3219 230.679C8.9459 230.679 9.3299 230.199 9.3659 229.419H8.7299C8.7179 229.791 8.5259 229.983 8.2739 229.983C8.0699 229.983 7.9259 229.899 7.6259 229.731C7.3499 229.563 7.0379 229.395 6.7019 229.395C6.1139 229.395 5.6939 229.851 5.6459 230.667H6.2819C6.3059 230.295 6.4739 230.091 6.7139 230.091C6.9179 230.091 7.1339 230.235 7.4699 230.403C7.7339 230.547 8.0219 230.679 8.3219 230.679ZM13.3231 233.547C11.8591 233.547 11.0791 232.143 11.0791 229.935C11.0791 227.679 11.8591 226.311 13.3231 226.311C14.7751 226.311 15.5551 227.727 15.5551 229.935C15.5551 232.191 14.8111 233.547 13.3231 233.547ZM13.3111 234.219C15.2791 234.219 16.3591 232.551 16.3591 229.935C16.3591 227.247 15.1831 225.651 13.3231 225.651C11.4631 225.651 10.2751 227.271 10.2751 229.935C10.2751 232.551 11.3671 234.219 13.3111 234.219Z" fill="#AFAFBB"/>
<path d="M2.124 120H2.904V111.732H2.316C2.172 112.956 1.608 113.232 0.396 113.292V113.82H2.124V120ZM7.42978 119.496C5.96578 119.496 5.18578 118.092 5.18578 115.884C5.18578 113.628 5.96578 112.26 7.42978 112.26C8.88178 112.26 9.66178 113.676 9.66178 115.884C9.66178 118.14 8.91778 119.496 7.42978 119.496ZM7.41778 120.168C9.38578 120.168 10.4658 118.5 10.4658 115.884C10.4658 113.196 9.28978 111.6 7.42978 111.6C5.56978 111.6 4.38178 113.22 4.38178 115.884C4.38178 118.5 5.47378 120.168 7.41778 120.168ZM14.4259 119.496C12.9619 119.496 12.1819 118.092 12.1819 115.884C12.1819 113.628 12.9619 112.26 14.4259 112.26C15.8779 112.26 16.6579 113.676 16.6579 115.884C16.6579 118.14 15.9139 119.496 14.4259 119.496ZM14.4139 120.168C16.3819 120.168 17.4619 118.5 17.4619 115.884C17.4619 113.196 16.2859 111.6 14.4259 111.6C12.5659 111.6 11.3779 113.22 11.3779 115.884C11.3779 118.5 12.4699 120.168 14.4139 120.168Z" fill="#AFAFBB"/>
<path d="M2.124 66H2.904V57.732H2.316C2.172 58.956 1.608 59.232 0.396 59.292V59.82H2.124V66ZM6.94978 66.168C8.58178 66.168 9.67378 65.028 9.67378 63.372C9.67378 61.572 8.44978 60.624 7.11778 60.624C6.28978 60.624 5.76178 60.864 5.30578 61.284H5.28178L5.73778 58.476H9.26578V57.78H5.17378L4.44178 62.148H5.18578C5.50978 61.68 6.06178 61.308 6.98578 61.308C8.08978 61.308 8.88178 62.076 8.88178 63.348C8.88178 64.596 8.16178 65.46 6.93778 65.46C5.74978 65.46 5.13778 64.812 5.00578 63.78H4.23778C4.27378 65.184 5.40178 66.168 6.94978 66.168ZM13.5704 65.496C12.1064 65.496 11.3264 64.092 11.3264 61.884C11.3264 59.628 12.1064 58.26 13.5704 58.26C15.0224 58.26 15.8024 59.676 15.8024 61.884C15.8024 64.14 15.0584 65.496 13.5704 65.496ZM13.5584 66.168C15.5264 66.168 16.6064 64.5 16.6064 61.884C16.6064 59.196 15.4304 57.6 13.5704 57.6C11.7104 57.6 10.5224 59.22 10.5224 61.884C10.5224 64.5 11.6144 66.168 13.5584 66.168Z" fill="#AFAFBB"/>
<path d="M3.024 179.168C4.656 179.168 5.748 178.028 5.748 176.372C5.748 174.572 4.524 173.624 3.192 173.624C2.364 173.624 1.836 173.864 1.38 174.284H1.356L1.812 171.476H5.34V170.78H1.248L0.516 175.148H1.26C1.584 174.68 2.136 174.308 3.06 174.308C4.164 174.308 4.956 175.076 4.956 176.348C4.956 177.596 4.236 178.46 3.012 178.46C1.824 178.46 1.212 177.812 1.08 176.78H0.312C0.348 178.184 1.476 179.168 3.024 179.168ZM9.64463 178.496C8.18063 178.496 7.40063 177.092 7.40063 174.884C7.40063 172.628 8.18063 171.26 9.64463 171.26C11.0966 171.26 11.8766 172.676 11.8766 174.884C11.8766 177.14 11.1326 178.496 9.64463 178.496ZM9.63263 179.168C11.6006 179.168 12.6806 177.5 12.6806 174.884C12.6806 172.196 11.5046 170.6 9.64463 170.6C7.78463 170.6 6.59663 172.22 6.59663 174.884C6.59663 177.5 7.68863 179.168 9.63263 179.168Z" fill="#AFAFBB"/>
<path d="M127.326 262.256H128.106V253.988H127.518C127.374 255.212 126.81 255.488 125.598 255.548V256.076H127.326V262.256ZM132.632 261.752C131.168 261.752 130.388 260.348 130.388 258.14C130.388 255.884 131.168 254.516 132.632 254.516C134.084 254.516 134.864 255.932 134.864 258.14C134.864 260.396 134.12 261.752 132.632 261.752ZM132.62 262.424C134.588 262.424 135.668 260.756 135.668 258.14C135.668 255.452 134.492 253.856 132.632 253.856C130.772 253.856 129.584 255.476 129.584 258.14C129.584 260.756 130.676 262.424 132.62 262.424Z" fill="#AFAFBB"/>
<path d="M157.326 262.256H158.106V253.988H157.518C157.374 255.212 156.81 255.488 155.598 255.548V256.076H157.326V262.256ZM159.512 262.256H164.84V261.536H160.4C160.568 260.396 161.612 259.76 162.56 259.196C163.772 258.476 164.948 257.9 164.948 256.256C164.948 254.9 163.976 253.868 162.428 253.868C161.648 253.868 160.928 254.12 160.436 254.612C159.968 255.08 159.704 255.752 159.704 256.676H160.496C160.508 255.92 160.688 255.416 161.012 255.056C161.336 254.708 161.804 254.528 162.38 254.528C163.46 254.528 164.156 255.176 164.156 256.28C164.156 257.48 163.388 257.888 162.272 258.56C160.976 259.34 159.548 260.144 159.512 262.256Z" fill="#AFAFBB"/>
<path d="M188.326 262.256H189.106V253.988H188.518C188.374 255.212 187.81 255.488 186.598 255.548V256.076H188.326V262.256ZM194.197 262.256H194.953V260.156H196.225V259.508H194.953V253.952H194.305L190.357 259.436V260.156H194.197V262.256ZM191.137 259.508V259.472L194.173 255.26H194.197V259.508H191.137Z" fill="#AFAFBB"/>
<path d="M217.326 262.256H218.106V253.988H217.518C217.374 255.212 216.81 255.488 215.598 255.548V256.076H217.326V262.256ZM222.596 262.424C224.144 262.424 225.236 261.2 225.224 259.64C225.224 258.104 224.132 256.964 222.62 256.964C221.636 256.964 220.868 257.444 220.376 258.296H220.352C220.34 256.028 221.048 254.528 222.656 254.528C223.58 254.528 224.156 255.152 224.228 255.992H225.008C224.876 254.804 224.084 253.856 222.644 253.856C220.628 253.856 219.584 255.644 219.584 258.092C219.584 259.796 219.872 260.996 220.688 261.728C221.168 262.16 221.756 262.424 222.596 262.424ZM222.572 261.776C221.384 261.776 220.556 260.936 220.556 259.688C220.556 258.464 221.408 257.612 222.572 257.612C223.688 257.612 224.468 258.44 224.468 259.664C224.468 260.888 223.7 261.776 222.572 261.776Z" fill="#AFAFBB"/>
<path d="M275.586 262.256H280.914V261.536H276.474C276.642 260.396 277.686 259.76 278.634 259.196C279.846 258.476 281.022 257.9 281.022 256.256C281.022 254.9 280.05 253.868 278.502 253.868C277.722 253.868 277.002 254.12 276.51 254.612C276.042 255.08 275.778 255.752 275.778 256.676H276.57C276.582 255.92 276.762 255.416 277.086 255.056C277.41 254.708 277.878 254.528 278.454 254.528C279.534 254.528 280.23 255.176 280.23 256.28C280.23 257.48 279.462 257.888 278.346 258.56C277.05 259.34 275.622 260.144 275.586 262.256ZM284.94 261.752C283.476 261.752 282.696 260.348 282.696 258.14C282.696 255.884 283.476 254.516 284.94 254.516C286.392 254.516 287.172 255.932 287.172 258.14C287.172 260.396 286.428 261.752 284.94 261.752ZM284.928 262.424C286.896 262.424 287.976 260.756 287.976 258.14C287.976 255.452 286.8 253.856 284.94 253.856C283.08 253.856 281.892 255.476 281.892 258.14C281.892 260.756 282.984 262.424 284.928 262.424Z" fill="#AFAFBB"/>
<path d="M305.586 262.256H310.914V261.536H306.474C306.642 260.396 307.686 259.76 308.634 259.196C309.846 258.476 311.022 257.9 311.022 256.256C311.022 254.9 310.05 253.868 308.502 253.868C307.722 253.868 307.002 254.12 306.51 254.612C306.042 255.08 305.778 255.752 305.778 256.676H306.57C306.582 255.92 306.762 255.416 307.086 255.056C307.41 254.708 307.878 254.528 308.454 254.528C309.534 254.528 310.23 255.176 310.23 256.28C310.23 257.48 309.462 257.888 308.346 258.56C307.05 259.34 305.622 260.144 305.586 262.256ZM311.82 262.256H317.148V261.536H312.708C312.876 260.396 313.92 259.76 314.868 259.196C316.08 258.476 317.256 257.9 317.256 256.256C317.256 254.9 316.284 253.868 314.736 253.868C313.956 253.868 313.236 254.12 312.744 254.612C312.276 255.08 312.012 255.752 312.012 256.676H312.804C312.816 255.92 312.996 255.416 313.32 255.056C313.644 254.708 314.112 254.528 314.688 254.528C315.768 254.528 316.464 255.176 316.464 256.28C316.464 257.48 315.696 257.888 314.58 258.56C313.284 259.34 311.856 260.144 311.82 262.256Z" fill="#AFAFBB"/>
<path d="M338.706 261.752C337.242 261.752 336.462 260.348 336.462 258.14C336.462 255.884 337.242 254.516 338.706 254.516C340.158 254.516 340.938 255.932 340.938 258.14C340.938 260.396 340.194 261.752 338.706 261.752ZM338.694 262.424C340.662 262.424 341.742 260.756 341.742 258.14C341.742 255.452 340.566 253.856 338.706 253.856C336.846 253.856 335.658 255.476 335.658 258.14C335.658 260.756 336.75 262.424 338.694 262.424ZM345.702 261.752C344.238 261.752 343.458 260.348 343.458 258.14C343.458 255.884 344.238 254.516 345.702 254.516C347.154 254.516 347.934 255.932 347.934 258.14C347.934 260.396 347.19 261.752 345.702 261.752ZM345.69 262.424C347.658 262.424 348.738 260.756 348.738 258.14C348.738 255.452 347.562 253.856 345.702 253.856C343.842 253.856 342.654 255.476 342.654 258.14C342.654 260.756 343.746 262.424 345.69 262.424Z" fill="#AFAFBB"/>
<path d="M247.386 262.256H249.03V253.976H247.602C247.434 255.032 246.534 255.404 245.526 255.44V256.52H247.386V262.256ZM253.525 262.436C255.385 262.436 256.789 261.5 256.789 259.808C256.789 258.812 256.213 258.032 255.301 257.708V257.672C256.009 257.336 256.441 256.796 256.441 256.028C256.441 254.648 255.289 253.868 253.513 253.868C251.737 253.868 250.525 254.66 250.525 256.052C250.525 256.844 250.945 257.348 251.677 257.684V257.72C250.777 258.068 250.177 258.86 250.177 259.88C250.177 261.536 251.665 262.436 253.525 262.436ZM253.489 261.116C252.493 261.116 251.869 260.624 251.869 259.82C251.869 258.98 252.505 258.428 253.513 258.428C254.521 258.428 255.109 258.98 255.109 259.82C255.109 260.6 254.449 261.116 253.489 261.116ZM253.489 257.288C252.625 257.288 252.121 256.832 252.121 256.184C252.121 255.536 252.625 255.104 253.489 255.104C254.341 255.104 254.845 255.536 254.845 256.184C254.845 256.832 254.341 257.288 253.489 257.288Z" fill="#F73F64"/>
<path d="M12.008 307H14.618V294.13H12.008V307ZM18.809 297.766H16.415V307H18.863V301.762C18.863 300.502 19.655 299.638 20.735 299.638C21.761 299.638 22.337 300.34 22.337 301.33V307H24.785V300.97C24.785 298.954 23.507 297.514 21.599 297.514C20.339 297.514 19.493 298.036 18.863 299.026H18.809V297.766ZM30.038 307.27C32.342 307.27 33.926 306.154 33.926 304.3C33.926 302.14 32.216 301.708 30.668 301.384C29.354 301.114 28.13 301.042 28.13 300.25C28.13 299.584 28.76 299.224 29.714 299.224C30.758 299.224 31.388 299.584 31.496 300.574H33.71C33.53 298.72 32.18 297.514 29.75 297.514C27.644 297.514 25.988 298.468 25.988 300.466C25.988 302.482 27.608 302.932 29.264 303.256C30.524 303.508 31.694 303.598 31.694 304.48C31.694 305.128 31.082 305.542 30.002 305.542C28.904 305.542 28.148 305.074 27.986 304.012H25.718C25.862 305.974 27.356 307.27 30.038 307.27ZM35.0303 307H37.4783V297.766H35.0303V307ZM35.0303 296.326H37.4783V294.13H35.0303V296.326ZM43.1237 310.15C44.4917 310.15 45.6797 309.826 46.4537 309.106C47.1377 308.476 47.5517 307.594 47.5517 306.298V297.766H45.1937V298.738H45.1577C44.5997 297.964 43.7537 297.514 42.6017 297.514C40.2617 297.514 38.6057 299.278 38.6057 302.032C38.6057 304.822 40.6217 306.442 42.6737 306.442C43.8437 306.442 44.5457 305.974 45.0857 305.362H45.1397V306.37C45.1397 307.63 44.4737 308.296 43.0877 308.296C41.9537 308.296 41.4317 307.846 41.2337 307.27H38.8037C39.0557 309.07 40.6037 310.15 43.1237 310.15ZM43.0877 304.48C41.8277 304.48 40.9997 303.562 40.9997 301.996C40.9997 300.448 41.8277 299.476 43.0697 299.476C44.5457 299.476 45.2657 300.628 45.2657 301.978C45.2657 303.346 44.6357 304.48 43.0877 304.48ZM51.5759 294.13H49.1279V307H51.5759V301.762C51.5759 300.502 52.3679 299.638 53.4479 299.638C54.4739 299.638 55.0499 300.34 55.0499 301.33V307H57.4979V300.97C57.4979 298.954 56.2199 297.514 54.3119 297.514C53.0519 297.514 52.2959 298 51.6299 298.972H51.5759V294.13ZM58.2911 299.386H59.5691V304.804C59.5691 306.55 60.8831 307.018 62.0711 307.018C63.0431 307.018 63.6011 306.982 63.6011 306.982V305.182C63.6011 305.182 63.1871 305.2 62.8811 305.2C62.3411 305.2 61.9631 304.966 61.9631 304.282V299.386H63.5471V297.766H61.9631V294.886H59.5691V297.766H58.2911V299.386ZM68.6395 307.27C70.9435 307.27 72.5275 306.154 72.5275 304.3C72.5275 302.14 70.8175 301.708 69.2695 301.384C67.9555 301.114 66.7315 301.042 66.7315 300.25C66.7315 299.584 67.3615 299.224 68.3155 299.224C69.3595 299.224 69.9895 299.584 70.0975 300.574H72.3115C72.1315 298.72 70.7815 297.514 68.3515 297.514C66.2455 297.514 64.5895 298.468 64.5895 300.466C64.5895 302.482 66.2095 302.932 67.8655 303.256C69.1255 303.508 70.2955 303.598 70.2955 304.48C70.2955 305.128 69.6835 305.542 68.6035 305.542C67.5055 305.542 66.7495 305.074 66.5875 304.012H64.3195C64.4635 305.974 65.9575 307.27 68.6395 307.27Z" fill="#39396F"/>
<path d="M13.768 334H14.512V326.524H14.536C14.536 326.524 14.776 327.244 14.956 327.688L17.464 334H18.172L20.656 327.688C20.836 327.208 21.064 326.524 21.064 326.524H21.088V334H21.868V325.42H20.74L17.848 332.908H17.824L14.86 325.42H13.768V334ZM24.9368 334.144C26.1248 334.144 26.7608 333.568 27.1088 333.076H27.1448V333.208C27.1808 333.808 27.5168 334.084 28.0568 334.084C28.2968 334.084 28.4528 334.036 28.5608 333.988V333.448H28.5248C28.4168 333.472 28.3328 333.496 28.2488 333.496C27.9848 333.484 27.8408 333.328 27.8408 332.956V329.584C27.8408 328.228 27.0008 327.664 25.6448 327.664C24.0488 327.664 23.2568 328.444 23.1728 329.644H23.9048C23.9648 328.72 24.5408 328.264 25.6448 328.264C26.6048 328.264 27.1328 328.672 27.1328 329.512V329.632C27.1328 330.256 26.6888 330.328 25.4648 330.472C24.0608 330.64 22.9088 330.94 22.9088 332.416C22.9088 333.568 23.7848 334.144 24.9368 334.144ZM25.0688 333.544C24.3368 333.544 23.6888 333.28 23.6888 332.416C23.6888 331.348 24.4928 331.192 25.5368 331.048C26.1368 330.964 26.7488 330.856 27.1448 330.64V331.756C27.1448 332.608 26.4248 333.544 25.0688 333.544ZM28.7171 334H29.5571L31.4651 331.204H31.4891L33.4211 334H34.2971L31.9211 330.664L33.9371 327.796H33.0971L31.4771 330.184H31.4531L29.8331 327.796H28.9691L31.0451 330.724L28.7171 334ZM35.0464 334H35.7904V327.796H35.0464V334ZM35.0464 326.476H35.7904V325.42H35.0464V326.476ZM37.0498 334H37.7938V330.052C37.7938 329.044 38.6458 328.3 39.5338 328.3C40.2538 328.3 40.7818 328.732 40.7818 329.656V334H41.5258V330.052C41.5258 328.948 42.2938 328.3 43.2058 328.3C43.9618 328.3 44.5138 328.732 44.5138 329.656V334H45.2458V329.596C45.2458 328.348 44.4298 327.664 43.3738 327.664C42.4978 327.664 41.7898 328.084 41.3818 328.792H41.3578C41.1058 328.048 40.4578 327.664 39.7018 327.664C38.8138 327.664 38.2138 328.108 37.8178 328.732H37.7938V327.796H37.0498V334ZM48.4519 334.144C49.4359 334.144 49.9639 333.688 50.3959 333.088H50.4199V334H51.1519V327.796H50.4199V331.672C50.4199 332.728 49.6759 333.52 48.6199 333.52C47.7199 333.52 47.1559 333.064 47.1559 332.128V327.796H46.4119V332.176C46.4119 333.424 47.2519 334.144 48.4519 334.144ZM52.4013 334H53.1453V330.052C53.1453 329.044 53.9973 328.3 54.8853 328.3C55.6053 328.3 56.1333 328.732 56.1333 329.656V334H56.8773V330.052C56.8773 328.948 57.6453 328.3 58.5573 328.3C59.3133 328.3 59.8653 328.732 59.8653 329.656V334H60.5973V329.596C60.5973 328.348 59.7813 327.664 58.7253 327.664C57.8493 327.664 57.1413 328.084 56.7333 328.792H56.7093C56.4573 328.048 55.8093 327.664 55.0533 327.664C54.1653 327.664 53.5653 328.108 53.1693 328.732H53.1453V327.796H52.4013V334ZM66.1242 334H66.9282V326.14H69.8202V325.42H63.2202V326.14H66.1242V334ZM69.7099 334H70.4539V330.472C70.4539 329.74 70.7779 329.164 71.2579 328.804C71.6419 328.528 72.1339 328.432 72.5779 328.504V327.772C72.5299 327.76 72.4699 327.748 72.3739 327.748C71.5099 327.748 70.8619 328.228 70.4779 328.948H70.4539V327.796H69.7099V334ZM74.7767 334.144C75.9647 334.144 76.6007 333.568 76.9487 333.076H76.9847V333.208C77.0207 333.808 77.3567 334.084 77.8967 334.084C78.1367 334.084 78.2927 334.036 78.4007 333.988V333.448H78.3647C78.2567 333.472 78.1727 333.496 78.0887 333.496C77.8247 333.484 77.6807 333.328 77.6807 332.956V329.584C77.6807 328.228 76.8407 327.664 75.4847 327.664C73.8887 327.664 73.0967 328.444 73.0127 329.644H73.7447C73.8047 328.72 74.3807 328.264 75.4847 328.264C76.4447 328.264 76.9727 328.672 76.9727 329.512V329.632C76.9727 330.256 76.5287 330.328 75.3047 330.472C73.9007 330.64 72.7487 330.94 72.7487 332.416C72.7487 333.568 73.6247 334.144 74.7767 334.144ZM74.9087 333.544C74.1767 333.544 73.5287 333.28 73.5287 332.416C73.5287 331.348 74.3327 331.192 75.3767 331.048C75.9767 330.964 76.5887 330.856 76.9847 330.64V331.756C76.9847 332.608 76.2647 333.544 74.9087 333.544ZM79.4358 334H80.1678V328.408H82.1238V334H82.8678V328.408H84.0198V327.796H82.8678V326.716C82.8678 326.248 83.0598 326.008 83.6718 326.008H83.9958V325.372C83.9478 325.372 83.6598 325.36 83.5758 325.36C82.6398 325.36 82.1238 325.768 82.1238 326.692V327.796H80.1678V326.776C80.1678 326.296 80.3598 326.068 80.9718 326.068H81.2958V325.432C81.2478 325.42 80.9598 325.42 80.8878 325.42C79.9398 325.42 79.4358 325.828 79.4358 326.752V327.796H78.5358V328.408H79.4358V334ZM84.8118 334H85.5558V327.796H84.8118V334ZM84.8118 326.476H85.5558V325.42H84.8118V326.476ZM89.327 334.156C90.803 334.156 91.727 333.268 91.871 331.864H91.163C91.043 332.86 90.383 333.52 89.327 333.52C87.923 333.52 87.275 332.344 87.275 330.904C87.275 329.464 87.911 328.276 89.339 328.276C90.299 328.276 90.911 328.744 91.091 329.668H91.835C91.631 328.396 90.707 327.652 89.339 327.652C87.539 327.652 86.507 329.056 86.507 330.904C86.507 332.752 87.515 334.156 89.327 334.156Z" fill="#AFAFBB"/>
<path d="M305.384 334H310.712V333.28H306.272C306.44 332.14 307.484 331.504 308.432 330.94C309.644 330.22 310.82 329.644 310.82 328C310.82 326.644 309.848 325.612 308.3 325.612C307.52 325.612 306.8 325.864 306.308 326.356C305.84 326.824 305.576 327.496 305.576 328.42H306.368C306.38 327.664 306.56 327.16 306.884 326.8C307.208 326.452 307.676 326.272 308.252 326.272C309.332 326.272 310.028 326.92 310.028 328.024C310.028 329.224 309.26 329.632 308.144 330.304C306.848 331.084 305.42 331.888 305.384 334ZM313.358 334H314.138V325.732H313.55C313.406 326.956 312.842 327.232 311.63 327.292V327.82H313.358V334ZM318.364 334.168C319.984 334.168 321.112 333.244 321.112 331.744C321.112 330.688 320.62 329.956 319.576 329.62V329.584C320.308 329.296 320.812 328.732 320.812 327.796C320.812 326.428 319.744 325.6 318.364 325.6C316.696 325.6 315.724 326.692 315.712 328.204H316.48C316.48 327.088 317.152 326.236 318.34 326.236C319.312 326.236 320.044 326.8 320.044 327.796C320.044 328.72 319.408 329.32 318.28 329.32H317.716V329.956H318.292C319.576 329.956 320.32 330.592 320.32 331.684C320.32 332.8 319.588 333.484 318.352 333.484C317.116 333.484 316.276 332.776 316.228 331.456H315.448C315.46 333.148 316.72 334.168 318.364 334.168Z" fill="#F73F64"/>
<path d="M310.574 354.168C312.194 354.168 313.322 353.244 313.322 351.744C313.322 350.688 312.83 349.956 311.786 349.62V349.584C312.518 349.296 313.022 348.732 313.022 347.796C313.022 346.428 311.954 345.6 310.574 345.6C308.906 345.6 307.934 346.692 307.922 348.204H308.69C308.69 347.088 309.362 346.236 310.55 346.236C311.522 346.236 312.254 346.8 312.254 347.796C312.254 348.72 311.618 349.32 310.49 349.32H309.926V349.956H310.502C311.786 349.956 312.53 350.592 312.53 351.684C312.53 352.8 311.798 353.484 310.562 353.484C309.326 353.484 308.486 352.776 308.438 351.456H307.658C307.67 353.148 308.93 354.168 310.574 354.168ZM314.106 354H319.434V353.28H314.994C315.162 352.14 316.206 351.504 317.154 350.94C318.366 350.22 319.542 349.644 319.542 348C319.542 346.644 318.57 345.612 317.022 345.612C316.242 345.612 315.522 345.864 315.03 346.356C314.562 346.824 314.298 347.496 314.298 348.42H315.09C315.102 347.664 315.282 347.16 315.606 346.8C315.93 346.452 316.398 346.272 316.974 346.272C318.054 346.272 318.75 346.92 318.75 348.024C318.75 349.224 317.982 349.632 316.866 350.304C315.57 351.084 314.142 351.888 314.106 354Z" fill="#2E3C5D"/>
<path d="M310.67 374.168C312.182 374.168 313.538 373.364 313.538 371.696C313.538 370.616 312.818 369.812 311.906 369.524V369.488C312.662 369.188 313.142 368.564 313.142 367.712C313.142 366.5 312.134 365.6 310.646 365.6C309.23 365.6 308.15 366.464 308.15 367.712C308.15 368.564 308.618 369.2 309.374 369.5V369.536C308.45 369.86 307.754 370.544 307.754 371.696C307.754 373.34 309.158 374.168 310.67 374.168ZM310.67 373.508C309.326 373.508 308.558 372.764 308.558 371.696C308.558 370.616 309.314 369.86 310.634 369.86C311.966 369.86 312.758 370.616 312.758 371.696C312.758 372.752 311.966 373.508 310.67 373.508ZM310.634 369.224C309.53 369.224 308.918 368.576 308.918 367.748C308.918 366.896 309.554 366.248 310.646 366.248C311.738 366.248 312.374 366.896 312.374 367.748C312.374 368.576 311.714 369.224 310.634 369.224ZM315.106 374H315.946C316.198 370.772 317.59 368.048 319.222 366.452V365.78H313.846V366.476H318.418V366.5C316.702 368.156 315.334 371.132 315.106 374Z" fill="#A297F8"/>
<path d="M13.768 354H14.512V346.524H14.536C14.536 346.524 14.776 347.244 14.956 347.688L17.464 354H18.172L20.656 347.688C20.836 347.208 21.064 346.524 21.064 346.524H21.088V354H21.868V345.42H20.74L17.848 352.908H17.824L14.86 345.42H13.768V354ZM23.2808 354H24.0248V347.796H23.2808V354ZM23.2808 346.476H24.0248V345.42H23.2808V346.476ZM25.2842 354H26.0282V350.064C26.0282 349.044 26.8922 348.3 27.9482 348.3C28.8242 348.3 29.3642 348.732 29.3642 349.668V354H30.1082V349.596C30.1082 348.348 29.2802 347.664 28.1282 347.664C27.1442 347.664 26.4722 348.12 26.0522 348.744H26.0282V347.796H25.2842V354ZM31.3316 354H32.0756V347.796H31.3316V354ZM31.3316 346.476H32.0756V345.42H31.3316V346.476ZM33.3349 354H34.0789V350.052C34.0789 349.044 34.9309 348.3 35.8189 348.3C36.5389 348.3 37.0669 348.732 37.0669 349.656V354H37.8109V350.052C37.8109 348.948 38.5789 348.3 39.4909 348.3C40.2469 348.3 40.7989 348.732 40.7989 349.656V354H41.5309V349.596C41.5309 348.348 40.7149 347.664 39.6589 347.664C38.7829 347.664 38.0749 348.084 37.6669 348.792H37.6429C37.3909 348.048 36.7429 347.664 35.9869 347.664C35.0989 347.664 34.4989 348.108 34.1029 348.732H34.0789V347.796H33.3349V354ZM44.7371 354.144C45.7211 354.144 46.2491 353.688 46.6811 353.088H46.7051V354H47.4371V347.796H46.7051V351.672C46.7051 352.728 45.9611 353.52 44.9051 353.52C44.0051 353.52 43.4411 353.064 43.4411 352.128V347.796H42.6971V352.176C42.6971 353.424 43.5371 354.144 44.7371 354.144ZM48.6865 354H49.4305V350.052C49.4305 349.044 50.2825 348.3 51.1705 348.3C51.8905 348.3 52.4185 348.732 52.4185 349.656V354H53.1625V350.052C53.1625 348.948 53.9305 348.3 54.8425 348.3C55.5985 348.3 56.1505 348.732 56.1505 349.656V354H56.8825V349.596C56.8825 348.348 56.0665 347.664 55.0105 347.664C54.1345 347.664 53.4265 348.084 53.0185 348.792H52.9945C52.7425 348.048 52.0945 347.664 51.3385 347.664C50.4505 347.664 49.8505 348.108 49.4545 348.732H49.4305V347.796H48.6865V354ZM62.4093 354H63.2133V346.14H66.1053V345.42H59.5053V346.14H62.4093V354ZM65.9951 354H66.7391V350.472C66.7391 349.74 67.0631 349.164 67.5431 348.804C67.9271 348.528 68.4191 348.432 68.8631 348.504V347.772C68.8151 347.76 68.7551 347.748 68.6591 347.748C67.7951 347.748 67.1471 348.228 66.7631 348.948H66.7391V347.796H65.9951V354ZM71.0618 354.144C72.2498 354.144 72.8858 353.568 73.2338 353.076H73.2698V353.208C73.3058 353.808 73.6418 354.084 74.1818 354.084C74.4218 354.084 74.5778 354.036 74.6858 353.988V353.448H74.6498C74.5418 353.472 74.4578 353.496 74.3738 353.496C74.1098 353.484 73.9658 353.328 73.9658 352.956V349.584C73.9658 348.228 73.1258 347.664 71.7698 347.664C70.1738 347.664 69.3818 348.444 69.2978 349.644H70.0298C70.0898 348.72 70.6658 348.264 71.7698 348.264C72.7298 348.264 73.2578 348.672 73.2578 349.512V349.632C73.2578 350.256 72.8138 350.328 71.5898 350.472C70.1858 350.64 69.0338 350.94 69.0338 352.416C69.0338 353.568 69.9098 354.144 71.0618 354.144ZM71.1938 353.544C70.4618 353.544 69.8138 353.28 69.8138 352.416C69.8138 351.348 70.6178 351.192 71.6618 351.048C72.2618 350.964 72.8738 350.856 73.2698 350.64V351.756C73.2698 352.608 72.5498 353.544 71.1938 353.544ZM75.7209 354H76.4529V348.408H78.4089V354H79.1529V348.408H80.3049V347.796H79.1529V346.716C79.1529 346.248 79.3449 346.008 79.9569 346.008H80.2809V345.372C80.2329 345.372 79.9449 345.36 79.8609 345.36C78.9249 345.36 78.4089 345.768 78.4089 346.692V347.796H76.4529V346.776C76.4529 346.296 76.6449 346.068 77.2569 346.068H77.5809V345.432C77.5329 345.42 77.2449 345.42 77.1729 345.42C76.2249 345.42 75.7209 345.828 75.7209 346.752V347.796H74.8209V348.408H75.7209V354ZM81.0969 354H81.8409V347.796H81.0969V354ZM81.0969 346.476H81.8409V345.42H81.0969V346.476ZM85.6122 354.156C87.0882 354.156 88.0122 353.268 88.1562 351.864H87.4482C87.3282 352.86 86.6682 353.52 85.6122 353.52C84.2082 353.52 83.5602 352.344 83.5602 350.904C83.5602 349.464 84.1962 348.276 85.6242 348.276C86.5842 348.276 87.1962 348.744 87.3762 349.668H88.1202C87.9162 348.396 86.9922 347.652 85.6242 347.652C83.8242 347.652 82.7922 349.056 82.7922 350.904C82.7922 352.752 83.8002 354.156 85.6122 354.156Z" fill="#AFAFBB"/>
<path d="M13.096 374H13.912L14.92 371.3H18.652L19.648 374H20.512L17.248 365.42H16.336L13.096 374ZM15.16 370.64L16.36 367.436C16.552 366.92 16.78 366.188 16.78 366.188H16.804C16.804 366.188 17.056 366.956 17.236 367.436L18.412 370.64H15.16ZM22.3344 374H23.2104L25.4544 367.796H24.6984L23.3064 371.732C23.1024 372.332 22.7904 373.304 22.7904 373.304H22.7664C22.7664 373.304 22.4664 372.332 22.2624 371.732L20.9304 367.796H20.1384L22.3344 374ZM28.5553 374.156C29.9473 374.156 30.8233 373.352 31.0873 372.128H30.3673C30.1273 372.968 29.5873 373.52 28.5553 373.52C27.1393 373.52 26.4673 372.428 26.4313 371.036H31.1593C31.1713 369.296 30.4873 367.652 28.4953 367.652C26.7793 367.652 25.6633 369.044 25.6633 370.904C25.6633 372.764 26.6953 374.156 28.5553 374.156ZM26.4433 370.448C26.5753 369.212 27.2353 368.264 28.4953 368.264C29.7673 368.264 30.3433 369.224 30.3793 370.448H26.4433ZM32.081 374H32.825V370.472C32.825 369.74 33.149 369.164 33.629 368.804C34.013 368.528 34.505 368.432 34.949 368.504V367.772C34.901 367.76 34.841 367.748 34.745 367.748C33.881 367.748 33.233 368.228 32.849 368.948H32.825V367.796H32.081V374ZM37.1478 374.144C38.3358 374.144 38.9718 373.568 39.3198 373.076H39.3558V373.208C39.3918 373.808 39.7278 374.084 40.2678 374.084C40.5078 374.084 40.6638 374.036 40.7718 373.988V373.448H40.7358C40.6278 373.472 40.5438 373.496 40.4598 373.496C40.1958 373.484 40.0518 373.328 40.0518 372.956V369.584C40.0518 368.228 39.2118 367.664 37.8558 367.664C36.2598 367.664 35.4678 368.444 35.3838 369.644H36.1158C36.1758 368.72 36.7518 368.264 37.8558 368.264C38.8158 368.264 39.3438 368.672 39.3438 369.512V369.632C39.3438 370.256 38.8998 370.328 37.6758 370.472C36.2718 370.64 35.1198 370.94 35.1198 372.416C35.1198 373.568 35.9958 374.144 37.1478 374.144ZM37.2798 373.544C36.5478 373.544 35.8998 373.28 35.8998 372.416C35.8998 371.348 36.7038 371.192 37.7478 371.048C38.3478 370.964 38.9598 370.856 39.3558 370.64V371.756C39.3558 372.608 38.6358 373.544 37.2798 373.544ZM43.8214 376.172C44.7454 376.172 45.4294 375.92 45.8974 375.428C46.2694 375.02 46.4734 374.456 46.4734 373.76V367.796H45.7414V368.756H45.7054C45.2974 368.084 44.6974 367.664 43.7374 367.664C42.2974 367.664 41.0734 368.768 41.0734 370.784C41.0734 372.608 42.1054 373.88 43.7374 373.88C44.6734 373.88 45.2494 373.496 45.7054 372.8H45.7414V373.784C45.7414 374.876 45.1174 375.56 43.7974 375.56C42.8974 375.56 42.1894 375.272 42.0574 374.552H41.3374C41.4454 375.476 42.2974 376.172 43.8214 376.172ZM43.7734 373.256C42.4654 373.256 41.8414 372.212 41.8414 370.796C41.8414 369.284 42.5614 368.288 43.7854 368.288C45.1414 368.288 45.7894 369.308 45.7894 370.772C45.7894 372.26 45.1534 373.256 43.7734 373.256ZM50.2936 374.156C51.6856 374.156 52.5616 373.352 52.8256 372.128H52.1056C51.8656 372.968 51.3256 373.52 50.2936 373.52C48.8776 373.52 48.2056 372.428 48.1696 371.036H52.8976C52.9096 369.296 52.2256 367.652 50.2336 367.652C48.5176 367.652 47.4016 369.044 47.4016 370.904C47.4016 372.764 48.4336 374.156 50.2936 374.156ZM48.1816 370.448C48.3136 369.212 48.9736 368.264 50.2336 368.264C51.5056 368.264 52.0816 369.224 52.1176 370.448H48.1816ZM58.132 374H58.936V366.14H61.828V365.42H55.228V366.14H58.132V374ZM61.7178 374H62.4618V370.472C62.4618 369.74 62.7858 369.164 63.2658 368.804C63.6498 368.528 64.1418 368.432 64.5858 368.504V367.772C64.5378 367.76 64.4778 367.748 64.3818 367.748C63.5178 367.748 62.8698 368.228 62.4858 368.948H62.4618V367.796H61.7178V374ZM66.7845 374.144C67.9725 374.144 68.6085 373.568 68.9565 373.076H68.9925V373.208C69.0285 373.808 69.3645 374.084 69.9045 374.084C70.1445 374.084 70.3005 374.036 70.4085 373.988V373.448H70.3725C70.2645 373.472 70.1805 373.496 70.0965 373.496C69.8325 373.484 69.6885 373.328 69.6885 372.956V369.584C69.6885 368.228 68.8485 367.664 67.4925 367.664C65.8965 367.664 65.1045 368.444 65.0205 369.644H65.7525C65.8125 368.72 66.3885 368.264 67.4925 368.264C68.4525 368.264 68.9805 368.672 68.9805 369.512V369.632C68.9805 370.256 68.5365 370.328 67.3125 370.472C65.9085 370.64 64.7565 370.94 64.7565 372.416C64.7565 373.568 65.6325 374.144 66.7845 374.144ZM66.9165 373.544C66.1845 373.544 65.5365 373.28 65.5365 372.416C65.5365 371.348 66.3405 371.192 67.3845 371.048C67.9845 370.964 68.5965 370.856 68.9925 370.64V371.756C68.9925 372.608 68.2725 373.544 66.9165 373.544ZM71.4436 374H72.1756V368.408H74.1316V374H74.8756V368.408H76.0276V367.796H74.8756V366.716C74.8756 366.248 75.0676 366.008 75.6796 366.008H76.0036V365.372C75.9556 365.372 75.6676 365.36 75.5836 365.36C74.6476 365.36 74.1316 365.768 74.1316 366.692V367.796H72.1756V366.776C72.1756 366.296 72.3676 366.068 72.9796 366.068H73.3036V365.432C73.2556 365.42 72.9676 365.42 72.8956 365.42C71.9476 365.42 71.4436 365.828 71.4436 366.752V367.796H70.5436V368.408H71.4436V374ZM76.8196 374H77.5636V367.796H76.8196V374ZM76.8196 366.476H77.5636V365.42H76.8196V366.476ZM81.3348 374.156C82.8108 374.156 83.7348 373.268 83.8788 371.864H83.1708C83.0508 372.86 82.3908 373.52 81.3348 373.52C79.9308 373.52 79.2828 372.344 79.2828 370.904C79.2828 369.464 79.9188 368.276 81.3468 368.276C82.3068 368.276 82.9188 368.744 83.0988 369.668H83.8428C83.6388 368.396 82.7148 367.652 81.3468 367.652C79.5468 367.652 78.5148 369.056 78.5148 370.904C78.5148 372.752 79.5228 374.156 81.3348 374.156Z" fill="#AFAFBB"/>
<ellipse cx="330.92" cy="331" rx="4.28175" ry="4" fill="#F73F64"/>
<ellipse cx="330.92" cy="350" rx="4.28175" ry="4" fill="#2E3C5D"/>
<ellipse cx="330.92" cy="369" rx="4.28175" ry="4" fill="#A297F8"/>
<line x1="24" y1="240" x2="365" y2="240" stroke="#E7E7E7" stroke-width="2"/>
</svg>
