<svg width="29" height="8" viewBox="0 0 29 8" fill="none" xmlns="http://www.w3.org/2000/svg">
<path d="M3.84 0C1.7195 0 0 1.7195 0 3.84C0 5.9605 1.7195 7.68 3.84 7.68C5.9605 7.68 7.68 5.9605 7.68 3.84C7.68 1.7195 5.9605 0 3.84 0ZM3.84 6.4C2.42644 6.4 1.28 5.25359 1.28 3.84C1.28 2.42641 2.42641 1.28 3.84 1.28C5.25359 1.28 6.4 2.42644 6.4 3.84C6.4 5.25356 5.25359 6.4 3.84 6.4Z" fill="#39396F"/>
<path d="M14.1601 0C12.0396 0 10.3201 1.7195 10.3201 3.84C10.3201 5.9605 12.0396 7.68 14.1601 7.68C16.2806 7.68 18.0001 5.9605 18.0001 3.84C18.0001 1.7195 16.2806 0 14.1601 0ZM14.1601 6.4C12.7465 6.4 11.6001 5.25359 11.6001 3.84C11.6001 2.42641 12.7465 1.28 14.1601 1.28C15.5737 1.28 16.7201 2.42641 16.7201 3.84C16.7201 5.25359 15.5736 6.4 14.1601 6.4Z" fill="#39396F"/>
<path d="M24.84 0C22.7195 0 21 1.7195 21 3.84C21 5.9605 22.7195 7.68 24.84 7.68C26.9605 7.68 28.68 5.9605 28.68 3.84C28.68 1.7195 26.9605 0 24.84 0ZM24.84 6.4C23.4264 6.4 22.28 5.25359 22.28 3.84C22.28 2.42641 23.4264 1.28 24.84 1.28C26.2536 1.28 27.4 2.42641 27.4 3.84C27.4 5.25359 26.2536 6.4 24.84 6.4Z" fill="#39396F"/>
</svg>
