<svg width="40" height="40" viewBox="0 0 40 40" fill="none" xmlns="http://www.w3.org/2000/svg">
<circle cx="20" cy="20" r="20" fill="#2E2C64"/>
<path d="M20.1321 25.9193C22.1204 25.9193 23.4767 24.3009 23.4767 21.7424C23.4767 19.2763 22.0587 17.5655 20.0705 17.5655C18.9761 17.5655 18.298 18.0741 17.8664 18.7369H17.8202V14.6679H15.724V25.6881H17.7431V24.7017H17.7739C18.2363 25.4415 19.0224 25.9193 20.1321 25.9193ZM19.6697 24.1622C18.4983 24.1622 17.7739 23.2374 17.7739 21.7886C17.7739 20.3244 18.2671 19.2609 19.5927 19.2609C20.764 19.2609 21.3497 20.2782 21.3497 21.7424C21.3497 23.2683 20.7486 24.1622 19.6697 24.1622Z" fill="white"/>
<path d="M24.1801 25.6881H26.4304V23.4532H24.1801V25.6881Z" fill="white"/>
</svg>
