<svg width="297" height="369" viewBox="0 0 297 369" fill="none" xmlns="http://www.w3.org/2000/svg">
<path d="M21.3259 346H22.1059V337.732H21.5179C21.3739 338.956 20.8099 339.232 19.5979 339.292V339.82H21.3259V346ZM26.1517 346.168C27.7837 346.168 28.8757 345.028 28.8757 343.372C28.8757 341.572 27.6517 340.624 26.3197 340.624C25.4917 340.624 24.9637 340.864 24.5077 341.284H24.4837L24.9397 338.476H28.4677V337.78H24.3757L23.6437 342.148H24.3877C24.7117 341.68 25.2637 341.308 26.1877 341.308C27.2917 341.308 28.0837 342.076 28.0837 343.348C28.0837 344.596 27.3637 345.46 26.1397 345.46C24.9517 345.46 24.3397 344.812 24.2077 343.78H23.4397C23.4757 345.184 24.6037 346.168 26.1517 346.168ZM32.7723 345.496C31.3083 345.496 30.5283 344.092 30.5283 341.884C30.5283 339.628 31.3083 338.26 32.7723 338.26C34.2243 338.26 35.0043 339.676 35.0043 341.884C35.0043 344.14 34.2603 345.496 32.7723 345.496ZM32.7603 346.168C34.7283 346.168 35.8083 344.5 35.8083 341.884C35.8083 339.196 34.6323 337.6 32.7723 337.6C30.9123 337.6 29.7243 339.22 29.7243 341.884C29.7243 344.5 30.8163 346.168 32.7603 346.168ZM38.4891 342.976H41.5611V342.304H38.4891V342.976ZM44.1718 346H49.4998V345.28H45.0598C45.2278 344.14 46.2718 343.504 47.2198 342.94C48.4318 342.22 49.6078 341.644 49.6078 340C49.6078 338.644 48.6358 337.612 47.0878 337.612C46.3078 337.612 45.5878 337.864 45.0958 338.356C44.6278 338.824 44.3638 339.496 44.3638 340.42H45.1558C45.1678 339.664 45.3478 339.16 45.6718 338.8C45.9958 338.452 46.4638 338.272 47.0398 338.272C48.1198 338.272 48.8158 338.92 48.8158 340.024C48.8158 341.224 48.0478 341.632 46.9318 342.304C45.6358 343.084 44.2078 343.888 44.1718 346ZM53.5262 345.496C52.0622 345.496 51.2822 344.092 51.2822 341.884C51.2822 339.628 52.0622 338.26 53.5262 338.26C54.9782 338.26 55.7582 339.676 55.7582 341.884C55.7582 344.14 55.0142 345.496 53.5262 345.496ZM53.5142 346.168C55.4822 346.168 56.5622 344.5 56.5622 341.884C56.5622 339.196 55.3862 337.6 53.5262 337.6C51.6662 337.6 50.4782 339.22 50.4782 341.884C50.4782 344.5 51.5702 346.168 53.5142 346.168ZM60.5223 345.496C59.0583 345.496 58.2783 344.092 58.2783 341.884C58.2783 339.628 59.0583 338.26 60.5223 338.26C61.9743 338.26 62.7543 339.676 62.7543 341.884C62.7543 344.14 62.0103 345.496 60.5223 345.496ZM60.5103 346.168C62.4783 346.168 63.5583 344.5 63.5583 341.884C63.5583 339.196 62.3823 337.6 60.5223 337.6C58.6623 337.6 57.4743 339.22 57.4743 341.884C57.4743 344.5 58.5663 346.168 60.5103 346.168ZM68.2478 347.992H68.9918V345.1H69.0158C69.4838 345.784 70.1198 346.156 71.0678 346.156C72.6998 346.156 73.6838 344.812 73.6838 342.904C73.6838 340.84 72.6038 339.664 71.1158 339.664C70.1318 339.664 69.4478 340.132 69.0158 340.864H68.9918V339.796H68.2478V347.992ZM71.0318 345.532C69.6158 345.532 68.9318 344.452 68.9318 342.928C68.9318 341.452 69.6518 340.288 71.0198 340.288C72.2558 340.288 72.9278 341.368 72.9278 342.916C72.9278 344.356 72.3038 345.532 71.0318 345.532ZM77.1791 346.156C78.5711 346.156 79.4471 345.352 79.7111 344.128H78.9911C78.7511 344.968 78.2111 345.52 77.1791 345.52C75.7631 345.52 75.0911 344.428 75.0551 343.036H79.7831C79.7951 341.296 79.1111 339.652 77.1191 339.652C75.4031 339.652 74.2871 341.044 74.2871 342.904C74.2871 344.764 75.3191 346.156 77.1791 346.156ZM75.0671 342.448C75.1991 341.212 75.8591 340.264 77.1191 340.264C78.3911 340.264 78.9671 341.224 79.0031 342.448H75.0671ZM83.2608 345.532C81.8688 345.532 81.1488 344.356 81.1488 342.904C81.1488 341.452 81.8688 340.276 83.2608 340.276C84.6408 340.276 85.3608 341.452 85.3608 342.904C85.3608 344.356 84.6408 345.532 83.2608 345.532ZM83.2608 346.156C85.0488 346.156 86.1168 344.752 86.1168 342.904C86.1168 341.056 85.0488 339.652 83.2608 339.652C81.4728 339.652 80.3808 341.056 80.3808 342.904C80.3808 344.752 81.4728 346.156 83.2608 346.156ZM87.0564 347.992H87.8004V345.1H87.8244C88.2924 345.784 88.9284 346.156 89.8764 346.156C91.5084 346.156 92.4924 344.812 92.4924 342.904C92.4924 340.84 91.4124 339.664 89.9244 339.664C88.9404 339.664 88.2564 340.132 87.8244 340.864H87.8004V339.796H87.0564V347.992ZM89.8404 345.532C88.4244 345.532 87.7404 344.452 87.7404 342.928C87.7404 341.452 88.4604 340.288 89.8284 340.288C91.0644 340.288 91.7364 341.368 91.7364 342.916C91.7364 344.356 91.1124 345.532 89.8404 345.532ZM93.4557 346H94.1997V337.42H93.4557V346ZM98.0502 346.156C99.4422 346.156 100.318 345.352 100.582 344.128H99.8622C99.6222 344.968 99.0822 345.52 98.0502 345.52C96.6342 345.52 95.9622 344.428 95.9262 343.036H100.654C100.666 341.296 99.9822 339.652 97.9902 339.652C96.2742 339.652 95.1582 341.044 95.1582 342.904C95.1582 344.764 96.1902 346.156 98.0502 346.156ZM95.9382 342.448C96.0702 341.212 96.7302 340.264 97.9902 340.264C99.2622 340.264 99.8382 341.224 99.8742 342.448H95.9382Z" fill="#AFAFBB"/>
<path d="M183.226 346.168C184.858 346.168 185.95 345.028 185.95 343.372C185.95 341.572 184.726 340.624 183.394 340.624C182.566 340.624 182.038 340.864 181.582 341.284H181.558L182.014 338.476H185.542V337.78H181.45L180.718 342.148H181.462C181.786 341.68 182.338 341.308 183.262 341.308C184.366 341.308 185.158 342.076 185.158 343.348C185.158 344.596 184.438 345.46 183.214 345.46C182.026 345.46 181.414 344.812 181.282 343.78H180.514C180.55 345.184 181.678 346.168 183.226 346.168ZM189.847 345.496C188.383 345.496 187.603 344.092 187.603 341.884C187.603 339.628 188.383 338.26 189.847 338.26C191.299 338.26 192.079 339.676 192.079 341.884C192.079 344.14 191.335 345.496 189.847 345.496ZM189.835 346.168C191.803 346.168 192.883 344.5 192.883 341.884C192.883 339.196 191.707 337.6 189.847 337.6C187.987 337.6 186.799 339.22 186.799 341.884C186.799 344.5 187.891 346.168 189.835 346.168ZM195.563 342.976H198.635V342.304H195.563V342.976ZM202.986 346H203.766V337.732H203.178C203.034 338.956 202.47 339.232 201.258 339.292V339.82H202.986V346ZM208.292 345.496C206.828 345.496 206.048 344.092 206.048 341.884C206.048 339.628 206.828 338.26 208.292 338.26C209.744 338.26 210.524 339.676 210.524 341.884C210.524 344.14 209.78 345.496 208.292 345.496ZM208.28 346.168C210.248 346.168 211.328 344.5 211.328 341.884C211.328 339.196 210.152 337.6 208.292 337.6C206.432 337.6 205.244 339.22 205.244 341.884C205.244 344.5 206.336 346.168 208.28 346.168ZM215.288 345.496C213.824 345.496 213.044 344.092 213.044 341.884C213.044 339.628 213.824 338.26 215.288 338.26C216.74 338.26 217.52 339.676 217.52 341.884C217.52 344.14 216.776 345.496 215.288 345.496ZM215.276 346.168C217.244 346.168 218.324 344.5 218.324 341.884C218.324 339.196 217.148 337.6 215.288 337.6C213.428 337.6 212.24 339.22 212.24 341.884C212.24 344.5 213.332 346.168 215.276 346.168ZM221.209 347.992H221.953V345.1H221.977C222.445 345.784 223.081 346.156 224.029 346.156C225.661 346.156 226.645 344.812 226.645 342.904C226.645 340.84 225.565 339.664 224.077 339.664C223.093 339.664 222.409 340.132 221.977 340.864H221.953V339.796H221.209V347.992ZM223.993 345.532C222.577 345.532 221.893 344.452 221.893 342.928C221.893 341.452 222.613 340.288 223.981 340.288C225.217 340.288 225.889 341.368 225.889 342.916C225.889 344.356 225.265 345.532 223.993 345.532ZM230.14 346.156C231.532 346.156 232.408 345.352 232.672 344.128H231.952C231.712 344.968 231.172 345.52 230.14 345.52C228.724 345.52 228.052 344.428 228.016 343.036H232.744C232.756 341.296 232.072 339.652 230.08 339.652C228.364 339.652 227.248 341.044 227.248 342.904C227.248 344.764 228.28 346.156 230.14 346.156ZM228.028 342.448C228.16 341.212 228.82 340.264 230.08 340.264C231.352 340.264 231.928 341.224 231.964 342.448H228.028ZM236.222 345.532C234.83 345.532 234.11 344.356 234.11 342.904C234.11 341.452 234.83 340.276 236.222 340.276C237.602 340.276 238.322 341.452 238.322 342.904C238.322 344.356 237.602 345.532 236.222 345.532ZM236.222 346.156C238.01 346.156 239.078 344.752 239.078 342.904C239.078 341.056 238.01 339.652 236.222 339.652C234.434 339.652 233.342 341.056 233.342 342.904C233.342 344.752 234.434 346.156 236.222 346.156ZM240.017 347.992H240.761V345.1H240.785C241.253 345.784 241.889 346.156 242.837 346.156C244.469 346.156 245.453 344.812 245.453 342.904C245.453 340.84 244.373 339.664 242.885 339.664C241.901 339.664 241.217 340.132 240.785 340.864H240.761V339.796H240.017V347.992ZM242.801 345.532C241.385 345.532 240.701 344.452 240.701 342.928C240.701 341.452 241.421 340.288 242.789 340.288C244.025 340.288 244.697 341.368 244.697 342.916C244.697 344.356 244.073 345.532 242.801 345.532ZM246.417 346H247.161V337.42H246.417V346ZM251.011 346.156C252.403 346.156 253.279 345.352 253.543 344.128H252.823C252.583 344.968 252.043 345.52 251.011 345.52C249.595 345.52 248.923 344.428 248.887 343.036H253.615C253.627 341.296 252.943 339.652 250.951 339.652C249.235 339.652 248.119 341.044 248.119 342.904C248.119 344.764 249.151 346.156 251.011 346.156ZM248.899 342.448C249.031 341.212 249.691 340.264 250.951 340.264C252.223 340.264 252.799 341.224 252.835 342.448H248.899Z" fill="#AFAFBB"/>
<path d="M21.3259 367H22.1059V358.732H21.5179C21.3739 359.956 20.8099 360.232 19.5979 360.292V360.82H21.3259V367ZM26.6317 366.496C25.1677 366.496 24.3877 365.092 24.3877 362.884C24.3877 360.628 25.1677 359.26 26.6317 359.26C28.0837 359.26 28.8637 360.676 28.8637 362.884C28.8637 365.14 28.1197 366.496 26.6317 366.496ZM26.6197 367.168C28.5877 367.168 29.6677 365.5 29.6677 362.884C29.6677 360.196 28.4917 358.6 26.6317 358.6C24.7717 358.6 23.5837 360.22 23.5837 362.884C23.5837 365.5 24.6757 367.168 26.6197 367.168ZM33.6278 366.496C32.1638 366.496 31.3838 365.092 31.3838 362.884C31.3838 360.628 32.1638 359.26 33.6278 359.26C35.0798 359.26 35.8598 360.676 35.8598 362.884C35.8598 365.14 35.1158 366.496 33.6278 366.496ZM33.6158 367.168C35.5838 367.168 36.6638 365.5 36.6638 362.884C36.6638 360.196 35.4878 358.6 33.6278 358.6C31.7678 358.6 30.5798 360.22 30.5798 362.884C30.5798 365.5 31.6718 367.168 33.6158 367.168ZM39.3446 363.976H42.4166V363.304H39.3446V363.976ZM46.7673 367H47.5473V358.732H46.9593C46.8153 359.956 46.2513 360.232 45.0393 360.292V360.82H46.7673V367ZM51.5931 367.168C53.2251 367.168 54.3171 366.028 54.3171 364.372C54.3171 362.572 53.0931 361.624 51.7611 361.624C50.9331 361.624 50.4051 361.864 49.9491 362.284H49.9251L50.3811 359.476H53.9091V358.78H49.8171L49.0851 363.148H49.8291C50.1531 362.68 50.7051 362.308 51.6291 362.308C52.7331 362.308 53.5251 363.076 53.5251 364.348C53.5251 365.596 52.8051 366.46 51.5811 366.46C50.3931 366.46 49.7811 365.812 49.6491 364.78H48.8811C48.9171 366.184 50.0451 367.168 51.5931 367.168ZM58.2137 366.496C56.7497 366.496 55.9697 365.092 55.9697 362.884C55.9697 360.628 56.7497 359.26 58.2137 359.26C59.6657 359.26 60.4457 360.676 60.4457 362.884C60.4457 365.14 59.7017 366.496 58.2137 366.496ZM58.2017 367.168C60.1697 367.168 61.2497 365.5 61.2497 362.884C61.2497 360.196 60.0737 358.6 58.2137 358.6C56.3537 358.6 55.1657 360.22 55.1657 362.884C55.1657 365.5 56.2577 367.168 58.2017 367.168ZM64.1345 368.992H64.8785V366.1H64.9025C65.3705 366.784 66.0065 367.156 66.9545 367.156C68.5865 367.156 69.5705 365.812 69.5705 363.904C69.5705 361.84 68.4905 360.664 67.0025 360.664C66.0185 360.664 65.3345 361.132 64.9025 361.864H64.8785V360.796H64.1345V368.992ZM66.9185 366.532C65.5025 366.532 64.8185 365.452 64.8185 363.928C64.8185 362.452 65.5385 361.288 66.9065 361.288C68.1425 361.288 68.8145 362.368 68.8145 363.916C68.8145 365.356 68.1905 366.532 66.9185 366.532ZM73.0658 367.156C74.4578 367.156 75.3338 366.352 75.5978 365.128H74.8778C74.6378 365.968 74.0978 366.52 73.0658 366.52C71.6498 366.52 70.9778 365.428 70.9418 364.036H75.6698C75.6818 362.296 74.9978 360.652 73.0058 360.652C71.2898 360.652 70.1738 362.044 70.1738 363.904C70.1738 365.764 71.2058 367.156 73.0658 367.156ZM70.9538 363.448C71.0858 362.212 71.7458 361.264 73.0058 361.264C74.2778 361.264 74.8538 362.224 74.8898 363.448H70.9538ZM79.1475 366.532C77.7555 366.532 77.0355 365.356 77.0355 363.904C77.0355 362.452 77.7555 361.276 79.1475 361.276C80.5275 361.276 81.2475 362.452 81.2475 363.904C81.2475 365.356 80.5275 366.532 79.1475 366.532ZM79.1475 367.156C80.9355 367.156 82.0035 365.752 82.0035 363.904C82.0035 362.056 80.9355 360.652 79.1475 360.652C77.3595 360.652 76.2675 362.056 76.2675 363.904C76.2675 365.752 77.3595 367.156 79.1475 367.156ZM82.9431 368.992H83.6871V366.1H83.7111C84.1791 366.784 84.8151 367.156 85.7631 367.156C87.3951 367.156 88.3791 365.812 88.3791 363.904C88.3791 361.84 87.2991 360.664 85.8111 360.664C84.8271 360.664 84.1431 361.132 83.7111 361.864H83.6871V360.796H82.9431V368.992ZM85.7271 366.532C84.3111 366.532 83.6271 365.452 83.6271 363.928C83.6271 362.452 84.3471 361.288 85.7151 361.288C86.9511 361.288 87.6231 362.368 87.6231 363.916C87.6231 365.356 86.9991 366.532 85.7271 366.532ZM89.3424 367H90.0864V358.42H89.3424V367ZM93.9369 367.156C95.3289 367.156 96.2049 366.352 96.4689 365.128H95.7489C95.5089 365.968 94.9689 366.52 93.9369 366.52C92.5209 366.52 91.8489 365.428 91.8129 364.036H96.5409C96.5529 362.296 95.8689 360.652 93.8769 360.652C92.1609 360.652 91.0449 362.044 91.0449 363.904C91.0449 365.764 92.0769 367.156 93.9369 367.156ZM91.8249 363.448C91.9569 362.212 92.6169 361.264 93.8769 361.264C95.1489 361.264 95.7249 362.224 95.7609 363.448H91.8249Z" fill="#AFAFBB"/>
<path d="M185.706 366.496C184.242 366.496 183.462 365.092 183.462 362.884C183.462 360.628 184.242 359.26 185.706 359.26C187.158 359.26 187.938 360.676 187.938 362.884C187.938 365.14 187.194 366.496 185.706 366.496ZM185.694 367.168C187.662 367.168 188.742 365.5 188.742 362.884C188.742 360.196 187.566 358.6 185.706 358.6C183.846 358.6 182.658 360.22 182.658 362.884C182.658 365.5 183.75 367.168 185.694 367.168ZM191.423 363.976H194.495V363.304H191.423V363.976ZM199.745 367.168C201.377 367.168 202.469 366.028 202.469 364.372C202.469 362.572 201.245 361.624 199.913 361.624C199.085 361.624 198.557 361.864 198.101 362.284H198.077L198.533 359.476H202.061V358.78H197.969L197.237 363.148H197.981C198.305 362.68 198.857 362.308 199.781 362.308C200.885 362.308 201.677 363.076 201.677 364.348C201.677 365.596 200.957 366.46 199.733 366.46C198.545 366.46 197.933 365.812 197.801 364.78H197.033C197.069 366.184 198.197 367.168 199.745 367.168ZM206.366 366.496C204.902 366.496 204.122 365.092 204.122 362.884C204.122 360.628 204.902 359.26 206.366 359.26C207.818 359.26 208.598 360.676 208.598 362.884C208.598 365.14 207.854 366.496 206.366 366.496ZM206.354 367.168C208.322 367.168 209.402 365.5 209.402 362.884C209.402 360.196 208.226 358.6 206.366 358.6C204.506 358.6 203.318 360.22 203.318 362.884C203.318 365.5 204.41 367.168 206.354 367.168ZM212.287 368.992H213.031V366.1H213.055C213.523 366.784 214.159 367.156 215.107 367.156C216.739 367.156 217.723 365.812 217.723 363.904C217.723 361.84 216.643 360.664 215.155 360.664C214.171 360.664 213.487 361.132 213.055 361.864H213.031V360.796H212.287V368.992ZM215.071 366.532C213.655 366.532 212.971 365.452 212.971 363.928C212.971 362.452 213.691 361.288 215.059 361.288C216.295 361.288 216.967 362.368 216.967 363.916C216.967 365.356 216.343 366.532 215.071 366.532ZM221.218 367.156C222.61 367.156 223.486 366.352 223.75 365.128H223.03C222.79 365.968 222.25 366.52 221.218 366.52C219.802 366.52 219.13 365.428 219.094 364.036H223.822C223.834 362.296 223.15 360.652 221.158 360.652C219.442 360.652 218.326 362.044 218.326 363.904C218.326 365.764 219.358 367.156 221.218 367.156ZM219.106 363.448C219.238 362.212 219.898 361.264 221.158 361.264C222.43 361.264 223.006 362.224 223.042 363.448H219.106ZM227.3 366.532C225.908 366.532 225.188 365.356 225.188 363.904C225.188 362.452 225.908 361.276 227.3 361.276C228.68 361.276 229.4 362.452 229.4 363.904C229.4 365.356 228.68 366.532 227.3 366.532ZM227.3 367.156C229.088 367.156 230.156 365.752 230.156 363.904C230.156 362.056 229.088 360.652 227.3 360.652C225.512 360.652 224.42 362.056 224.42 363.904C224.42 365.752 225.512 367.156 227.3 367.156ZM231.095 368.992H231.839V366.1H231.863C232.331 366.784 232.967 367.156 233.915 367.156C235.547 367.156 236.531 365.812 236.531 363.904C236.531 361.84 235.451 360.664 233.963 360.664C232.979 360.664 232.295 361.132 231.863 361.864H231.839V360.796H231.095V368.992ZM233.879 366.532C232.463 366.532 231.779 365.452 231.779 363.928C231.779 362.452 232.499 361.288 233.867 361.288C235.103 361.288 235.775 362.368 235.775 363.916C235.775 365.356 235.151 366.532 233.879 366.532ZM237.495 367H238.239V358.42H237.495V367ZM242.089 367.156C243.481 367.156 244.357 366.352 244.621 365.128H243.901C243.661 365.968 243.121 366.52 242.089 366.52C240.673 366.52 240.001 365.428 239.965 364.036H244.693C244.705 362.296 244.021 360.652 242.029 360.652C240.313 360.652 239.197 362.044 239.197 363.904C239.197 365.764 240.229 367.156 242.089 367.156ZM239.977 363.448C240.109 362.212 240.769 361.264 242.029 361.264C243.301 361.264 243.877 362.224 243.913 363.448H239.977Z" fill="#AFAFBB"/>
<circle cx="118.202" cy="343" r="4" fill="#F73F64"/>
<circle cx="284.202" cy="342" r="4" fill="#2E395E"/>
<circle cx="118.202" cy="363" r="4" fill="#644DFF"/>
<circle cx="284.202" cy="363" r="4" fill="#A297F8"/>
<path d="M18.9699 303H19.7139V295.524H19.7379C19.7379 295.524 19.9779 296.244 20.1579 296.688L22.6659 303H23.3739L25.8579 296.688C26.0379 296.208 26.2659 295.524 26.2659 295.524H26.2899V303H27.0699V294.42H25.9419L23.0499 301.908H23.0259L20.0619 294.42H18.9699V303Z" fill="#AFAFBB"/>
<path d="M3.7059 10.496C2.2419 10.496 1.4619 9.092 1.4619 6.884C1.4619 4.628 2.2419 3.26 3.7059 3.26C5.1579 3.26 5.9379 4.676 5.9379 6.884C5.9379 9.14 5.1939 10.496 3.7059 10.496ZM3.6939 11.168C5.6619 11.168 6.7419 9.5 6.7419 6.884C6.7419 4.196 5.5659 2.6 3.7059 2.6C1.8459 2.6 0.657904 4.22 0.657904 6.884C0.657904 9.5 1.7499 11.168 3.6939 11.168ZM10.3808 11.168C11.8928 11.168 13.2488 10.364 13.2488 8.696C13.2488 7.616 12.5288 6.812 11.6168 6.524V6.488C12.3728 6.188 12.8528 5.564 12.8528 4.712C12.8528 3.5 11.8448 2.6 10.3568 2.6C8.94081 2.6 7.86081 3.464 7.86081 4.712C7.86081 5.564 8.32881 6.2 9.08481 6.5V6.536C8.16081 6.86 7.46481 7.544 7.46481 8.696C7.46481 10.34 8.86881 11.168 10.3808 11.168ZM10.3808 10.508C9.03681 10.508 8.26881 9.764 8.26881 8.696C8.26881 7.616 9.02481 6.86 10.3448 6.86C11.6768 6.86 12.4688 7.616 12.4688 8.696C12.4688 9.752 11.6768 10.508 10.3808 10.508ZM10.3448 6.224C9.24081 6.224 8.62881 5.576 8.62881 4.748C8.62881 3.896 9.26481 3.248 10.3568 3.248C11.4488 3.248 12.0848 3.896 12.0848 4.748C12.0848 5.576 11.4248 6.224 10.3448 6.224Z" fill="#AFAFBB"/>
<path d="M3.7059 255.496C2.2419 255.496 1.4619 254.092 1.4619 251.884C1.4619 249.628 2.2419 248.26 3.7059 248.26C5.1579 248.26 5.9379 249.676 5.9379 251.884C5.9379 254.14 5.1939 255.496 3.7059 255.496ZM3.6939 256.168C5.6619 256.168 6.7419 254.5 6.7419 251.884C6.7419 249.196 5.5659 247.6 3.7059 247.6C1.8459 247.6 0.657904 249.22 0.657904 251.884C0.657904 254.5 1.7499 256.168 3.6939 256.168ZM10.702 255.496C9.238 255.496 8.458 254.092 8.458 251.884C8.458 249.628 9.238 248.26 10.702 248.26C12.154 248.26 12.934 249.676 12.934 251.884C12.934 254.14 12.19 255.496 10.702 255.496ZM10.69 256.168C12.658 256.168 13.738 254.5 13.738 251.884C13.738 249.196 12.562 247.6 10.702 247.6C8.842 247.6 7.654 249.22 7.654 251.884C7.654 254.5 8.746 256.168 10.69 256.168Z" fill="#AFAFBB"/>
<path d="M3.7059 285.496C2.2419 285.496 1.4619 284.092 1.4619 281.884C1.4619 279.628 2.2419 278.26 3.7059 278.26C5.1579 278.26 5.9379 279.676 5.9379 281.884C5.9379 284.14 5.1939 285.496 3.7059 285.496ZM3.6939 286.168C5.6619 286.168 6.7419 284.5 6.7419 281.884C6.7419 279.196 5.5659 277.6 3.7059 277.6C1.8459 277.6 0.657904 279.22 0.657904 281.884C0.657904 284.5 1.7499 286.168 3.6939 286.168ZM7.5234 286H12.8514V285.28H8.4114C8.5794 284.14 9.6234 283.504 10.5714 282.94C11.7834 282.22 12.9594 281.644 12.9594 280C12.9594 278.644 11.9874 277.612 10.4394 277.612C9.6594 277.612 8.9394 277.864 8.4474 278.356C7.9794 278.824 7.7154 279.496 7.7154 280.42H8.5074C8.5194 279.664 8.6994 279.16 9.0234 278.8C9.3474 278.452 9.8154 278.272 10.3914 278.272C11.4714 278.272 12.1674 278.92 12.1674 280.024C12.1674 281.224 11.3994 281.632 10.2834 282.304C8.9874 283.084 7.5594 283.888 7.5234 286Z" fill="#AFAFBB"/>
<path d="M2.3259 134H3.1059V125.732H2.5179C2.3739 126.956 1.8099 127.232 0.597904 127.292V127.82H2.3259V134ZM7.59569 134.168C9.14369 134.168 10.2357 132.944 10.2237 131.384C10.2237 129.848 9.13169 128.708 7.61969 128.708C6.63569 128.708 5.86769 129.188 5.37569 130.04H5.35169C5.33969 127.772 6.04769 126.272 7.65569 126.272C8.57969 126.272 9.15569 126.896 9.22769 127.736H10.0077C9.87569 126.548 9.08369 125.6 7.64369 125.6C5.62769 125.6 4.58369 127.388 4.58369 129.836C4.58369 131.54 4.87169 132.74 5.68769 133.472C6.16769 133.904 6.75569 134.168 7.59569 134.168ZM7.57169 133.52C6.38369 133.52 5.55569 132.68 5.55569 131.432C5.55569 130.208 6.40769 129.356 7.57169 129.356C8.68769 129.356 9.46769 130.184 9.46769 131.408C9.46769 132.632 8.69969 133.52 7.57169 133.52Z" fill="#AFAFBB"/>
<path d="M0.585904 195H5.9139V194.28H1.4739C1.6419 193.14 2.6859 192.504 3.6339 191.94C4.8459 191.22 6.0219 190.644 6.0219 189C6.0219 187.644 5.0499 186.612 3.5019 186.612C2.7219 186.612 2.0019 186.864 1.5099 187.356C1.0419 187.824 0.777904 188.496 0.777904 189.42H1.5699C1.5819 188.664 1.7619 188.16 2.0859 187.8C2.4099 187.452 2.8779 187.272 3.4539 187.272C4.5339 187.272 5.2299 187.92 5.2299 189.024C5.2299 190.224 4.4619 190.632 3.3459 191.304C2.0499 192.084 0.621904 192.888 0.585904 195ZM9.94028 194.496C8.47628 194.496 7.69628 193.092 7.69628 190.884C7.69628 188.628 8.47628 187.26 9.94028 187.26C11.3923 187.26 12.1723 188.676 12.1723 190.884C12.1723 193.14 11.4283 194.496 9.94028 194.496ZM9.92828 195.168C11.8963 195.168 12.9763 193.5 12.9763 190.884C12.9763 188.196 11.8003 186.6 9.94028 186.6C8.08028 186.6 6.89228 188.22 6.89228 190.884C6.89228 193.5 7.98428 195.168 9.92828 195.168Z" fill="#AFAFBB"/>
<path d="M2.3259 72H3.1059V63.732H2.5179C2.3739 64.956 1.8099 65.232 0.597904 65.292V65.82H2.3259V72ZM4.51169 72H9.83969V71.28H5.39969C5.56769 70.14 6.61169 69.504 7.55969 68.94C8.77169 68.22 9.94769 67.644 9.94769 66C9.94769 64.644 8.97569 63.612 7.42769 63.612C6.64769 63.612 5.92769 63.864 5.43569 64.356C4.96769 64.824 4.70369 65.496 4.70369 66.42H5.49569C5.50769 65.664 5.68769 65.16 6.01169 64.8C6.33569 64.452 6.80369 64.272 7.37969 64.272C8.45969 64.272 9.15569 64.92 9.15569 66.024C9.15569 67.224 8.38769 67.632 7.27169 68.304C5.97569 69.084 4.54769 69.888 4.51169 72Z" fill="#AFAFBB"/>
<path d="M2.3259 40H3.1059V31.732H2.5179C2.3739 32.956 1.8099 33.232 0.597904 33.292V33.82H2.3259V40ZM7.63169 39.496C6.16769 39.496 5.38769 38.092 5.38769 35.884C5.38769 33.628 6.16769 32.26 7.63169 32.26C9.08369 32.26 9.86369 33.676 9.86369 35.884C9.86369 38.14 9.11969 39.496 7.63169 39.496ZM7.61969 40.168C9.58769 40.168 10.6677 38.5 10.6677 35.884C10.6677 33.196 9.49169 31.6 7.63169 31.6C5.77169 31.6 4.58369 33.22 4.58369 35.884C4.58369 38.5 5.67569 40.168 7.61969 40.168Z" fill="#AFAFBB"/>
<path d="M2.3259 101H3.1059V92.732H2.5179C2.3739 93.956 1.8099 94.232 0.597904 94.292V94.82H2.3259V101ZM8.19709 101H8.95309V98.9H10.2251V98.252H8.95309V92.696H8.30509L4.35709 98.18V98.9H8.19709V101ZM5.13709 98.252V98.216L8.17309 94.004H8.19709V98.252H5.13709Z" fill="#AFAFBB"/>
<path d="M2.3259 166H3.1059V157.732H2.5179C2.3739 158.956 1.8099 159.232 0.597904 159.292V159.82H2.3259V166ZM7.42769 166.168C8.93969 166.168 10.2957 165.364 10.2957 163.696C10.2957 162.616 9.57569 161.812 8.66369 161.524V161.488C9.41969 161.188 9.89969 160.564 9.89969 159.712C9.89969 158.5 8.89169 157.6 7.40369 157.6C5.98769 157.6 4.90769 158.464 4.90769 159.712C4.90769 160.564 5.37569 161.2 6.13169 161.5V161.536C5.20769 161.86 4.51169 162.544 4.51169 163.696C4.51169 165.34 5.91569 166.168 7.42769 166.168ZM7.42769 165.508C6.08369 165.508 5.31569 164.764 5.31569 163.696C5.31569 162.616 6.07169 161.86 7.39169 161.86C8.72369 161.86 9.51569 162.616 9.51569 163.696C9.51569 164.752 8.72369 165.508 7.42769 165.508ZM7.39169 161.224C6.28769 161.224 5.67569 160.576 5.67569 159.748C5.67569 158.896 6.31169 158.248 7.40369 158.248C8.49569 158.248 9.13169 158.896 9.13169 159.748C9.13169 160.576 8.47169 161.224 7.39169 161.224Z" fill="#AFAFBB"/>
<path d="M0.585904 226H5.9139V225.28H1.4739C1.6419 224.14 2.6859 223.504 3.6339 222.94C4.8459 222.22 6.0219 221.644 6.0219 220C6.0219 218.644 5.0499 217.612 3.5019 217.612C2.7219 217.612 2.0019 217.864 1.5099 218.356C1.0419 218.824 0.777904 219.496 0.777904 220.42H1.5699C1.5819 219.664 1.7619 219.16 2.0859 218.8C2.4099 218.452 2.8779 218.272 3.4539 218.272C4.5339 218.272 5.2299 218.92 5.2299 220.024C5.2299 221.224 4.4619 221.632 3.3459 222.304C2.0499 223.084 0.621904 223.888 0.585904 226ZM6.82028 226H12.1483V225.28H7.70828C7.87628 224.14 8.92028 223.504 9.86828 222.94C11.0803 222.22 12.2563 221.644 12.2563 220C12.2563 218.644 11.2843 217.612 9.73628 217.612C8.95628 217.612 8.23628 217.864 7.74428 218.356C7.27628 218.824 7.01228 219.496 7.01228 220.42H7.80428C7.81628 219.664 7.99628 219.16 8.32028 218.8C8.64428 218.452 9.11228 218.272 9.68828 218.272C10.7683 218.272 11.4643 218.92 11.4643 220.024C11.4643 221.224 10.6963 221.632 9.58028 222.304C8.28428 223.084 6.85628 223.888 6.82028 226Z" fill="#AFAFBB"/>
<path d="M64.3339 303H65.1379V295.14H68.0299V294.42H61.4299V295.14H64.3339V303Z" fill="#AFAFBB"/>
<path d="M103.626 303H104.478L106.158 296.748C106.302 296.196 106.482 295.356 106.482 295.356H106.506C106.506 295.356 106.686 296.208 106.842 296.748L108.474 303H109.29L111.618 294.42H110.814L109.314 300.204C109.158 300.84 108.918 301.896 108.918 301.896H108.894C108.894 301.896 108.654 300.852 108.498 300.24L106.926 294.42H106.062L104.49 300.252C104.322 300.864 104.082 301.896 104.082 301.896H104.058C104.058 301.896 103.83 300.84 103.662 300.204L102.174 294.42H101.346L103.626 303Z" fill="#AFAFBB"/>
<path d="M147.334 303H148.138V295.14H151.03V294.42H144.43V295.14H147.334V303Z" fill="#AFAFBB"/>
<path d="M187.97 303H188.774V298.872H192.854V298.176H188.774V295.128H193.562V294.42H187.97V303Z" fill="#AFAFBB"/>
<path d="M231.946 303.156C233.746 303.156 234.97 302.172 234.97 300.648C234.97 298.848 233.59 298.44 231.922 298.116C230.386 297.828 229.594 297.516 229.594 296.496C229.594 295.548 230.386 294.924 231.694 294.924C232.918 294.924 233.782 295.548 233.926 296.76H234.706C234.55 295.284 233.59 294.252 231.682 294.252C229.966 294.252 228.814 295.152 228.814 296.52C228.814 298.02 229.93 298.5 231.514 298.812C233.35 299.184 234.154 299.472 234.154 300.684C234.154 301.848 233.218 302.484 231.958 302.484C230.35 302.484 229.366 301.668 229.282 300.216H228.478C228.574 301.884 229.69 303.156 231.946 303.156Z" fill="#AFAFBB"/>
<path d="M273.946 303.156C275.746 303.156 276.97 302.172 276.97 300.648C276.97 298.848 275.59 298.44 273.922 298.116C272.386 297.828 271.594 297.516 271.594 296.496C271.594 295.548 272.386 294.924 273.694 294.924C274.918 294.924 275.782 295.548 275.926 296.76H276.706C276.55 295.284 275.59 294.252 273.682 294.252C271.966 294.252 270.814 295.152 270.814 296.52C270.814 298.02 271.93 298.5 273.514 298.812C275.35 299.184 276.154 299.472 276.154 300.684C276.154 301.848 275.218 302.484 273.958 302.484C272.35 302.484 271.366 301.668 271.282 300.216H270.478C270.574 301.884 271.69 303.156 273.946 303.156Z" fill="#AFAFBB"/>
<line x1="4.2019" y1="5.5" x2="296.202" y2="5.5" stroke="#E1E1E6" stroke-opacity="0.5" stroke-dasharray="3 3"/>
<line x1="4.2019" y1="35.5" x2="296.202" y2="35.5" stroke="#E1E1E6" stroke-opacity="0.5" stroke-dasharray="3 3"/>
<line x1="4.2019" y1="67.5" x2="296.202" y2="67.5" stroke="#E1E1E6" stroke-opacity="0.5" stroke-dasharray="3 3"/>
<line x1="4.2019" y1="97.5" x2="296.202" y2="97.5" stroke="#E1E1E6" stroke-opacity="0.5" stroke-dasharray="3 3"/>
<line x1="4.2019" y1="129.5" x2="296.202" y2="129.5" stroke="#E1E1E6" stroke-opacity="0.5" stroke-dasharray="3 3"/>
<line x1="4.2019" y1="161.5" x2="296.202" y2="161.5" stroke="#E1E1E6" stroke-opacity="0.5" stroke-dasharray="3 3"/>
<line x1="4.2019" y1="190.5" x2="296.202" y2="190.5" stroke="#E1E1E6" stroke-opacity="0.5" stroke-dasharray="3 3"/>
<line x1="4.2019" y1="222.5" x2="296.202" y2="222.5" stroke="#E1E1E6" stroke-opacity="0.5" stroke-dasharray="3 3"/>
<line x1="4.2019" y1="251.5" x2="296.202" y2="251.5" stroke="#E1E1E6" stroke-opacity="0.5" stroke-dasharray="3 3"/>
<line x1="4.2019" y1="281.5" x2="296.202" y2="281.5" stroke="#E1E1E6" stroke-opacity="0.5" stroke-dasharray="3 3"/>
<path d="M19.2019 3.36941C19.2019 1.50854 20.7104 0 22.5713 0C24.4322 0 25.9407 1.50853 25.9407 3.3694V280.631C25.9407 282.491 24.4322 284 22.5713 284C20.7104 284 19.2019 282.491 19.2019 280.631V3.36941Z" fill="#644DFF"/>
<path d="M19.2019 71.3694C19.2019 69.5085 20.7104 68 22.5713 68C24.4322 68 25.9407 69.5085 25.9407 71.3694V280.631C25.9407 282.491 24.4322 284 22.5713 284C20.7104 284 19.2019 282.491 19.2019 280.631V71.3694Z" fill="#F73F64"/>
<path d="M19.2019 191.369C19.2019 189.509 20.7104 188 22.5713 188C24.4322 188 25.9407 189.509 25.9407 191.369V280.631C25.9407 282.491 24.4322 284 22.5713 284C20.7104 284 19.2019 282.491 19.2019 280.631V191.369Z" fill="#A297F8"/>
<path d="M19.2019 248.369C19.2019 246.509 20.7104 245 22.5713 245C24.4322 245 25.9407 246.509 25.9407 248.369V280.631C25.9407 282.491 24.4322 284 22.5713 284C20.7104 284 19.2019 282.491 19.2019 280.631V248.369Z" fill="#2E2C64"/>
<path d="M60.5974 3.36941C60.5974 1.50854 62.1059 0 63.9668 0C65.8277 0 67.3362 1.50853 67.3362 3.3694V280.631C67.3362 282.491 65.8277 284 63.9668 284C62.1059 284 60.5974 282.491 60.5974 280.631V3.36941Z" fill="#644DFF"/>
<path d="M60.5974 32.3694C60.5974 30.5085 62.1059 29 63.9668 29C65.8277 29 67.3362 30.5085 67.3362 32.3694V280.631C67.3362 282.491 65.8277 284 63.9668 284C62.1059 284 60.5974 282.491 60.5974 280.631V32.3694Z" fill="#F73F64"/>
<path d="M60.5974 103.369C60.5974 101.509 62.1059 100 63.9668 100C65.8277 100 67.3362 101.509 67.3362 103.369V280.631C67.3362 282.491 65.8277 284 63.9668 284C62.1059 284 60.5974 282.491 60.5974 280.631V103.369Z" fill="#9F96F4"/>
<path d="M60.5974 131.369C60.5974 129.509 62.1059 128 63.9668 128C65.8277 128 67.3362 129.509 67.3362 131.369V280.631C67.3362 282.491 65.8277 284 63.9668 284C62.1059 284 60.5974 282.491 60.5974 280.631V131.369Z" fill="#2E3560"/>
<path d="M144.351 3.36941C144.351 1.50854 145.86 0 147.721 0C149.581 0 151.09 1.50853 151.09 3.3694V280.631C151.09 282.491 149.581 284 147.721 284C145.86 284 144.351 282.491 144.351 280.631V3.36941Z" fill="#644DFF"/>
<path d="M144.351 71.3694C144.351 69.5085 145.86 68 147.721 68C149.581 68 151.09 69.5085 151.09 71.3694V280.631C151.09 282.491 149.581 284 147.721 284C145.86 284 144.351 282.491 144.351 280.631V71.3694Z" fill="#F73F64"/>
<path d="M144.351 191.369C144.351 189.509 145.86 188 147.721 188C149.581 188 151.09 189.509 151.09 191.369V280.631C151.09 282.491 149.581 284 147.721 284C145.86 284 144.351 282.491 144.351 280.631V191.369Z" fill="#A297F8"/>
<path d="M144.351 237.369C144.351 235.509 145.86 234 147.721 234C149.581 234 151.09 235.509 151.09 237.369V280.631C151.09 282.491 149.581 284 147.721 284C145.86 284 144.351 282.491 144.351 280.631V237.369Z" fill="#2E395E"/>
<path d="M228.105 3.36941C228.105 1.50854 229.614 0 231.474 0C233.335 0 234.844 1.50853 234.844 3.3694V280.631C234.844 282.491 233.335 284 231.474 284C229.614 284 228.105 282.491 228.105 280.631V3.36941Z" fill="#F73F64"/>
<path d="M228.105 185.369C228.105 183.509 229.614 182 231.474 182C233.335 182 234.844 183.509 234.844 185.369V280.631C234.844 282.491 233.335 284 231.474 284C229.614 284 228.105 282.491 228.105 280.631V185.369Z" fill="#A297F8"/>
<path d="M102.956 3.36941C102.956 1.50854 104.464 0 106.325 0C108.186 0 109.694 1.50853 109.694 3.3694V280.631C109.694 282.491 108.186 284 106.325 284C104.464 284 102.956 282.491 102.956 280.631V3.36941Z" fill="#644DFF"/>
<path d="M102.956 11.3694C102.956 9.50855 104.464 8 106.325 8C108.186 8 109.694 9.50853 109.694 11.3694V280.631C109.694 282.491 108.186 284 106.325 284C104.464 284 102.956 282.491 102.956 280.631V11.3694Z" fill="#F73F64"/>
<path d="M102.956 233.369C102.956 231.509 104.464 230 106.325 230C108.186 230 109.694 231.509 109.694 233.369V280.631C109.694 282.491 108.186 284 106.325 284C104.464 284 102.956 282.491 102.956 280.631V233.369Z" fill="#A297F8"/>
<path d="M102.956 269.369C102.956 267.509 104.464 266 106.325 266C108.186 266 109.694 267.509 109.694 269.369V280.631C109.694 282.491 108.186 284 106.325 284C104.464 284 102.956 282.491 102.956 280.631V269.369Z" fill="#2E3461"/>
<path d="M186.709 3.36941C186.709 1.50854 188.218 0 190.079 0C191.94 0 193.448 1.50853 193.448 3.3694V280.631C193.448 282.491 191.94 284 190.079 284C188.218 284 186.709 282.491 186.709 280.631V3.36941Z" fill="#A297F8"/>
<path d="M186.709 50.3694C186.709 48.5085 188.218 47 190.079 47C191.94 47 193.448 48.5085 193.448 50.3694V280.631C193.448 282.491 191.94 284 190.079 284C188.218 284 186.709 282.491 186.709 280.631V50.3694Z" fill="#F73F64"/>
<path d="M186.709 155.369C186.709 153.509 188.218 152 190.079 152C191.94 152 193.448 153.509 193.448 155.369V280.631C193.448 282.491 191.94 284 190.079 284C188.218 284 186.709 282.491 186.709 280.631V155.369Z" fill="#2E3C5D"/>
<path d="M186.709 206.369C186.709 204.509 188.218 203 190.079 203C191.94 203 193.448 204.509 193.448 206.369V280.631C193.448 282.491 191.94 284 190.079 284C188.218 284 186.709 282.491 186.709 280.631V206.369Z" fill="#644DFF"/>
<path d="M270.463 3.36941C270.463 1.50854 271.972 0 273.833 0C275.694 0 277.202 1.50853 277.202 3.3694V280.631C277.202 282.491 275.694 284 273.833 284C271.972 284 270.463 282.491 270.463 280.631V3.36941Z" fill="#2E3C5D"/>
<path d="M270.463 206.369C270.463 204.509 271.972 203 273.833 203C275.694 203 277.202 204.509 277.202 206.369V280.631C277.202 282.491 275.694 284 273.833 284C271.972 284 270.463 282.491 270.463 280.631V206.369Z" fill="#A297F8"/>
</svg>
